ISO-10303-21;
HEADER;
FILE_DESCRIPTION(('Designed by EasyEDA Pro'),'2;1');
FILE_NAME('Open CASCADE Shape Model','2025-04-06T17:11:42',('Author'),(
    'Open CASCADE'),'Open CASCADE STEP processor 7.8','Open CASCADE 7.8'
  ,'Unknown');
FILE_SCHEMA(('AUTOMOTIVE_DESIGN { 1 0 10303 214 1 1 1 1 }'));
ENDSEC;
DATA;
#1 = APPLICATION_PROTOCOL_DEFINITION('international standard',
  'automotive_design',2000,#2);
#2 = APPLICATION_CONTEXT(
  'core data for automotive mechanical design processes');
#3 = SHAPE_DEFINITION_REPRESENTATION(#4,#10);
#4 = PRODUCT_DEFINITION_SHAPE('','',#5);
#5 = PRODUCT_DEFINITION('design','',#6,#9);
#6 = PRODUCT_DEFINITION_FORMATION('','',#7);
#7 = PRODUCT('biNZ-PCBModel','biNZ-PCBModel','',(#8));
#8 = PRODUCT_CONTEXT('',#2,'mechanical');
#9 = PRODUCT_DEFINITION_CONTEXT('part definition',#2,'design');
#10 = SHAPE_REPRESENTATION('',(#11,#15,#19,#23,#27,#31),#35);
#11 = AXIS2_PLACEMENT_3D('',#12,#13,#14);
#12 = CARTESIAN_POINT('',(0.,0.,0.));
#13 = DIRECTION('',(0.,0.,1.));
#14 = DIRECTION('',(1.,0.,-0.));
#15 = AXIS2_PLACEMENT_3D('',#16,#17,#18);
#16 = CARTESIAN_POINT('',(0.,0.,1.610028244856));
#17 = DIRECTION('',(0.,0.,1.));
#18 = DIRECTION('',(1.,0.,-0.));
#19 = AXIS2_PLACEMENT_3D('',#20,#21,#22);
#20 = CARTESIAN_POINT('',(0.,0.,-1.E-02));
#21 = DIRECTION('',(0.,0.,1.));
#22 = DIRECTION('',(1.,0.,-0.));
#23 = AXIS2_PLACEMENT_3D('',#24,#25,#26);
#24 = CARTESIAN_POINT('',(0.,0.,0.));
#25 = DIRECTION('',(0.,0.,1.));
#26 = DIRECTION('',(1.,0.,-0.));
#27 = AXIS2_PLACEMENT_3D('',#28,#29,#30);
#28 = CARTESIAN_POINT('',(0.,0.,0.));
#29 = DIRECTION('',(0.,0.,1.));
#30 = DIRECTION('',(1.,0.,-0.));
#31 = AXIS2_PLACEMENT_3D('',#32,#33,#34);
#32 = CARTESIAN_POINT('',(0.,0.,0.));
#33 = DIRECTION('',(0.,0.,1.));
#34 = DIRECTION('',(1.,0.,-0.));
#35 = ( GEOMETRIC_REPRESENTATION_CONTEXT(3) 
GLOBAL_UNCERTAINTY_ASSIGNED_CONTEXT((#39)) GLOBAL_UNIT_ASSIGNED_CONTEXT(
(#36,#37,#38)) REPRESENTATION_CONTEXT('Context #1',
  '3D Context with UNIT and UNCERTAINTY') );
#36 = ( LENGTH_UNIT() NAMED_UNIT(*) SI_UNIT(.MILLI.,.METRE.) );
#37 = ( NAMED_UNIT(*) PLANE_ANGLE_UNIT() SI_UNIT($,.RADIAN.) );
#38 = ( NAMED_UNIT(*) SI_UNIT($,.STERADIAN.) SOLID_ANGLE_UNIT() );
#39 = UNCERTAINTY_MEASURE_WITH_UNIT(LENGTH_MEASURE(1.E-07),#36,
  'distance_accuracy_value','confusion accuracy');
#40 = PRODUCT_RELATED_PRODUCT_CATEGORY('part',$,(#7));
#41 = SHAPE_DEFINITION_REPRESENTATION(#42,#48);
#42 = PRODUCT_DEFINITION_SHAPE('','',#43);
#43 = PRODUCT_DEFINITION('design','',#44,#47);
#44 = PRODUCT_DEFINITION_FORMATION('','',#45);
#45 = PRODUCT('biNZ-TopTrack','biNZ-TopTrack','',(#46));
#46 = PRODUCT_CONTEXT('',#2,'mechanical');
#47 = PRODUCT_DEFINITION_CONTEXT('part definition',#2,'design');
#48 = SHAPE_REPRESENTATION('',(#11),#49);
#49 = ( GEOMETRIC_REPRESENTATION_CONTEXT(3) 
GLOBAL_UNCERTAINTY_ASSIGNED_CONTEXT((#53)) GLOBAL_UNIT_ASSIGNED_CONTEXT(
(#50,#51,#52)) REPRESENTATION_CONTEXT('Context #1',
  '3D Context with UNIT and UNCERTAINTY') );
#50 = ( LENGTH_UNIT() NAMED_UNIT(*) SI_UNIT(.MILLI.,.METRE.) );
#51 = ( NAMED_UNIT(*) PLANE_ANGLE_UNIT() SI_UNIT($,.RADIAN.) );
#52 = ( NAMED_UNIT(*) SI_UNIT($,.STERADIAN.) SOLID_ANGLE_UNIT() );
#53 = UNCERTAINTY_MEASURE_WITH_UNIT(LENGTH_MEASURE(1.E-07),#50,
  'distance_accuracy_value','confusion accuracy');
#54 = CONTEXT_DEPENDENT_SHAPE_REPRESENTATION(#55,#57);
#55 = ( REPRESENTATION_RELATIONSHIP('','',#48,#10) 
REPRESENTATION_RELATIONSHIP_WITH_TRANSFORMATION(#56) 
SHAPE_REPRESENTATION_RELATIONSHIP() );
#56 = ITEM_DEFINED_TRANSFORMATION('','',#11,#15);
#57 = PRODUCT_DEFINITION_SHAPE('Placement','Placement of an item',#58);
#58 = NEXT_ASSEMBLY_USAGE_OCCURRENCE('1','=>[0:1:1:2]','',#5,#43,$);
#59 = PRODUCT_RELATED_PRODUCT_CATEGORY('part',$,(#45));
#60 = SHAPE_DEFINITION_REPRESENTATION(#61,#67);
#61 = PRODUCT_DEFINITION_SHAPE('','',#62);
#62 = PRODUCT_DEFINITION('design','',#63,#66);
#63 = PRODUCT_DEFINITION_FORMATION('','',#64);
#64 = PRODUCT('biNZ-BottomTrack','biNZ-BottomTrack','',(#65));
#65 = PRODUCT_CONTEXT('',#2,'mechanical');
#66 = PRODUCT_DEFINITION_CONTEXT('part definition',#2,'design');
#67 = SHAPE_REPRESENTATION('',(#11),#68);
#68 = ( GEOMETRIC_REPRESENTATION_CONTEXT(3) 
GLOBAL_UNCERTAINTY_ASSIGNED_CONTEXT((#72)) GLOBAL_UNIT_ASSIGNED_CONTEXT(
(#69,#70,#71)) REPRESENTATION_CONTEXT('Context #1',
  '3D Context with UNIT and UNCERTAINTY') );
#69 = ( LENGTH_UNIT() NAMED_UNIT(*) SI_UNIT(.MILLI.,.METRE.) );
#70 = ( NAMED_UNIT(*) PLANE_ANGLE_UNIT() SI_UNIT($,.RADIAN.) );
#71 = ( NAMED_UNIT(*) SI_UNIT($,.STERADIAN.) SOLID_ANGLE_UNIT() );
#72 = UNCERTAINTY_MEASURE_WITH_UNIT(LENGTH_MEASURE(1.E-07),#69,
  'distance_accuracy_value','confusion accuracy');
#73 = CONTEXT_DEPENDENT_SHAPE_REPRESENTATION(#74,#76);
#74 = ( REPRESENTATION_RELATIONSHIP('','',#67,#10) 
REPRESENTATION_RELATIONSHIP_WITH_TRANSFORMATION(#75) 
SHAPE_REPRESENTATION_RELATIONSHIP() );
#75 = ITEM_DEFINED_TRANSFORMATION('','',#11,#19);
#76 = PRODUCT_DEFINITION_SHAPE('Placement','Placement of an item',#77);
#77 = NEXT_ASSEMBLY_USAGE_OCCURRENCE('2','=>[0:1:1:3]','',#5,#62,$);
#78 = PRODUCT_RELATED_PRODUCT_CATEGORY('part',$,(#64));
#79 = SHAPE_DEFINITION_REPRESENTATION(#80,#86);
#80 = PRODUCT_DEFINITION_SHAPE('','',#81);
#81 = PRODUCT_DEFINITION('design','',#82,#85);
#82 = PRODUCT_DEFINITION_FORMATION('','',#83);
#83 = PRODUCT('biNZ-Board','biNZ-Board','',(#84));
#84 = PRODUCT_CONTEXT('',#2,'mechanical');
#85 = PRODUCT_DEFINITION_CONTEXT('part definition',#2,'design');
#86 = ADVANCED_BREP_SHAPE_REPRESENTATION('',(#11,#87),#1529);
#87 = MANIFOLD_SOLID_BREP('',#88);
#88 = CLOSED_SHELL('',(#89,#131,#162,#193,#224,#257,#288,#319,#350,#383,
    #414,#445,#476,#509,#540,#571,#593,#635,#659,#701,#725,#767,#791,
    #833,#857,#899,#923,#965,#989,#1031,#1055,#1097,#1121,#1163,#1187,
    #1229,#1253,#1295,#1319,#1361,#1385,#1457));
#89 = ADVANCED_FACE('',(#90),#126,.F.);
#90 = FACE_BOUND('',#91,.T.);
#91 = EDGE_LOOP('',(#92,#102,#111,#119));
#92 = ORIENTED_EDGE('',*,*,#93,.T.);
#93 = EDGE_CURVE('',#94,#96,#98,.T.);
#94 = VERTEX_POINT('',#95);
#95 = CARTESIAN_POINT('',(6.800013716027,89.187478282957,0.));
#96 = VERTEX_POINT('',#97);
#97 = CARTESIAN_POINT('',(6.800013716027,89.187478282957,1.600028244856)
  );
#98 = LINE('',#99,#100);
#99 = CARTESIAN_POINT('',(6.800013716027,89.187478282957,0.));
#100 = VECTOR('',#101,1.);
#101 = DIRECTION('',(0.,0.,1.));
#102 = ORIENTED_EDGE('',*,*,#103,.T.);
#103 = EDGE_CURVE('',#96,#104,#106,.T.);
#104 = VERTEX_POINT('',#105);
#105 = CARTESIAN_POINT('',(6.812713741427,89.200178308357,1.600028244856
    ));
#106 = CIRCLE('',#107,1.270002540005E-02);
#107 = AXIS2_PLACEMENT_3D('',#108,#109,#110);
#108 = CARTESIAN_POINT('',(6.800013716027,89.200178308357,1.600028244856
    ));
#109 = DIRECTION('',(0.,0.,1.));
#110 = DIRECTION('',(0.,-1.,0.));
#111 = ORIENTED_EDGE('',*,*,#112,.F.);
#112 = EDGE_CURVE('',#113,#104,#115,.T.);
#113 = VERTEX_POINT('',#114);
#114 = CARTESIAN_POINT('',(6.812713741427,89.200178308357,0.));
#115 = LINE('',#116,#117);
#116 = CARTESIAN_POINT('',(6.812713741427,89.200178308357,0.));
#117 = VECTOR('',#118,1.);
#118 = DIRECTION('',(0.,0.,1.));
#119 = ORIENTED_EDGE('',*,*,#120,.F.);
#120 = EDGE_CURVE('',#94,#113,#121,.T.);
#121 = CIRCLE('',#122,1.270002540005E-02);
#122 = AXIS2_PLACEMENT_3D('',#123,#124,#125);
#123 = CARTESIAN_POINT('',(6.800013716027,89.200178308357,0.));
#124 = DIRECTION('',(0.,0.,1.));
#125 = DIRECTION('',(0.,-1.,0.));
#126 = CYLINDRICAL_SURFACE('',#127,1.270002540005E-02);
#127 = AXIS2_PLACEMENT_3D('',#128,#129,#130);
#128 = CARTESIAN_POINT('',(6.800013716027,89.200178308357,0.));
#129 = DIRECTION('',(-0.,-0.,-1.));
#130 = DIRECTION('',(0.,-1.,0.));
#131 = ADVANCED_FACE('',(#132),#157,.T.);
#132 = FACE_BOUND('',#133,.T.);
#133 = EDGE_LOOP('',(#134,#135,#143,#151));
#134 = ORIENTED_EDGE('',*,*,#112,.T.);
#135 = ORIENTED_EDGE('',*,*,#136,.T.);
#136 = EDGE_CURVE('',#104,#137,#139,.T.);
#137 = VERTEX_POINT('',#138);
#138 = CARTESIAN_POINT('',(6.812713741427,95.987491998984,1.600028244856
    ));
#139 = LINE('',#140,#141);
#140 = CARTESIAN_POINT('',(6.812713741427,89.200178308357,1.600028244856
    ));
#141 = VECTOR('',#142,1.);
#142 = DIRECTION('',(1.308586077179E-16,1.,0.));
#143 = ORIENTED_EDGE('',*,*,#144,.F.);
#144 = EDGE_CURVE('',#145,#137,#147,.T.);
#145 = VERTEX_POINT('',#146);
#146 = CARTESIAN_POINT('',(6.812713741427,95.987491998984,0.));
#147 = LINE('',#148,#149);
#148 = CARTESIAN_POINT('',(6.812713741427,95.987491998984,0.));
#149 = VECTOR('',#150,1.);
#150 = DIRECTION('',(0.,0.,1.));
#151 = ORIENTED_EDGE('',*,*,#152,.F.);
#152 = EDGE_CURVE('',#113,#145,#153,.T.);
#153 = LINE('',#154,#155);
#154 = CARTESIAN_POINT('',(6.812713741427,89.200178308357,0.));
#155 = VECTOR('',#156,1.);
#156 = DIRECTION('',(1.308586077179E-16,1.,0.));
#157 = PLANE('',#158);
#158 = AXIS2_PLACEMENT_3D('',#159,#160,#161);
#159 = CARTESIAN_POINT('',(6.812713741427,89.200178308357,0.));
#160 = DIRECTION('',(-1.,1.308586077179E-16,0.));
#161 = DIRECTION('',(1.308586077179E-16,1.,0.));
#162 = ADVANCED_FACE('',(#163),#188,.T.);
#163 = FACE_BOUND('',#164,.T.);
#164 = EDGE_LOOP('',(#165,#166,#174,#182));
#165 = ORIENTED_EDGE('',*,*,#144,.T.);
#166 = ORIENTED_EDGE('',*,*,#167,.T.);
#167 = EDGE_CURVE('',#137,#168,#170,.T.);
#168 = VERTEX_POINT('',#169);
#169 = CARTESIAN_POINT('',(89.187478282957,95.987491998984,
    1.600028244856));
#170 = LINE('',#171,#172);
#171 = CARTESIAN_POINT('',(6.812713741427,95.987491998984,1.600028244856
    ));
#172 = VECTOR('',#173,1.);
#173 = DIRECTION('',(1.,0.,0.));
#174 = ORIENTED_EDGE('',*,*,#175,.F.);
#175 = EDGE_CURVE('',#176,#168,#178,.T.);
#176 = VERTEX_POINT('',#177);
#177 = CARTESIAN_POINT('',(89.187478282957,95.987491998984,0.));
#178 = LINE('',#179,#180);
#179 = CARTESIAN_POINT('',(89.187478282957,95.987491998984,0.));
#180 = VECTOR('',#181,1.);
#181 = DIRECTION('',(0.,0.,1.));
#182 = ORIENTED_EDGE('',*,*,#183,.F.);
#183 = EDGE_CURVE('',#145,#176,#184,.T.);
#184 = LINE('',#185,#186);
#185 = CARTESIAN_POINT('',(6.812713741427,95.987491998984,0.));
#186 = VECTOR('',#187,1.);
#187 = DIRECTION('',(1.,0.,0.));
#188 = PLANE('',#189);
#189 = AXIS2_PLACEMENT_3D('',#190,#191,#192);
#190 = CARTESIAN_POINT('',(6.812713741427,95.987491998984,0.));
#191 = DIRECTION('',(0.,1.,0.));
#192 = DIRECTION('',(1.,0.,0.));
#193 = ADVANCED_FACE('',(#194),#219,.T.);
#194 = FACE_BOUND('',#195,.T.);
#195 = EDGE_LOOP('',(#196,#197,#205,#213));
#196 = ORIENTED_EDGE('',*,*,#175,.T.);
#197 = ORIENTED_EDGE('',*,*,#198,.T.);
#198 = EDGE_CURVE('',#168,#199,#201,.T.);
#199 = VERTEX_POINT('',#200);
#200 = CARTESIAN_POINT('',(89.187478282957,89.200178308357,
    1.600028244856));
#201 = LINE('',#202,#203);
#202 = CARTESIAN_POINT('',(89.187478282957,95.987491998984,
    1.600028244856));
#203 = VECTOR('',#204,1.);
#204 = DIRECTION('',(0.,-1.,0.));
#205 = ORIENTED_EDGE('',*,*,#206,.F.);
#206 = EDGE_CURVE('',#207,#199,#209,.T.);
#207 = VERTEX_POINT('',#208);
#208 = CARTESIAN_POINT('',(89.187478282957,89.200178308357,0.));
#209 = LINE('',#210,#211);
#210 = CARTESIAN_POINT('',(89.187478282957,89.200178308357,0.));
#211 = VECTOR('',#212,1.);
#212 = DIRECTION('',(0.,0.,1.));
#213 = ORIENTED_EDGE('',*,*,#214,.F.);
#214 = EDGE_CURVE('',#176,#207,#215,.T.);
#215 = LINE('',#216,#217);
#216 = CARTESIAN_POINT('',(89.187478282957,95.987491998984,0.));
#217 = VECTOR('',#218,1.);
#218 = DIRECTION('',(0.,-1.,0.));
#219 = PLANE('',#220);
#220 = AXIS2_PLACEMENT_3D('',#221,#222,#223);
#221 = CARTESIAN_POINT('',(89.187478282957,95.987491998984,0.));
#222 = DIRECTION('',(1.,0.,-0.));
#223 = DIRECTION('',(0.,-1.,0.));
#224 = ADVANCED_FACE('',(#225),#252,.F.);
#225 = FACE_BOUND('',#226,.T.);
#226 = EDGE_LOOP('',(#227,#228,#237,#245));
#227 = ORIENTED_EDGE('',*,*,#206,.T.);
#228 = ORIENTED_EDGE('',*,*,#229,.T.);
#229 = EDGE_CURVE('',#199,#230,#232,.T.);
#230 = VERTEX_POINT('',#231);
#231 = CARTESIAN_POINT('',(89.200178308357,89.187478282957,
    1.600028244856));
#232 = CIRCLE('',#233,1.270002540005E-02);
#233 = AXIS2_PLACEMENT_3D('',#234,#235,#236);
#234 = CARTESIAN_POINT('',(89.200178308357,89.200178308357,
    1.600028244856));
#235 = DIRECTION('',(0.,0.,1.));
#236 = DIRECTION('',(-1.,0.,0.));
#237 = ORIENTED_EDGE('',*,*,#238,.F.);
#238 = EDGE_CURVE('',#239,#230,#241,.T.);
#239 = VERTEX_POINT('',#240);
#240 = CARTESIAN_POINT('',(89.200178308357,89.187478282957,0.));
#241 = LINE('',#242,#243);
#242 = CARTESIAN_POINT('',(89.200178308357,89.187478282957,0.));
#243 = VECTOR('',#244,1.);
#244 = DIRECTION('',(0.,0.,1.));
#245 = ORIENTED_EDGE('',*,*,#246,.F.);
#246 = EDGE_CURVE('',#207,#239,#247,.T.);
#247 = CIRCLE('',#248,1.270002540005E-02);
#248 = AXIS2_PLACEMENT_3D('',#249,#250,#251);
#249 = CARTESIAN_POINT('',(89.200178308357,89.200178308357,0.));
#250 = DIRECTION('',(0.,0.,1.));
#251 = DIRECTION('',(-1.,0.,0.));
#252 = CYLINDRICAL_SURFACE('',#253,1.270002540005E-02);
#253 = AXIS2_PLACEMENT_3D('',#254,#255,#256);
#254 = CARTESIAN_POINT('',(89.200178308357,89.200178308357,0.));
#255 = DIRECTION('',(-0.,-0.,-1.));
#256 = DIRECTION('',(-1.,0.,0.));
#257 = ADVANCED_FACE('',(#258),#283,.T.);
#258 = FACE_BOUND('',#259,.T.);
#259 = EDGE_LOOP('',(#260,#261,#269,#277));
#260 = ORIENTED_EDGE('',*,*,#238,.T.);
#261 = ORIENTED_EDGE('',*,*,#262,.T.);
#262 = EDGE_CURVE('',#230,#263,#265,.T.);
#263 = VERTEX_POINT('',#264);
#264 = CARTESIAN_POINT('',(95.987491998984,89.187478282957,
    1.600028244856));
#265 = LINE('',#266,#267);
#266 = CARTESIAN_POINT('',(89.200178308357,89.187478282957,
    1.600028244856));
#267 = VECTOR('',#268,1.);
#268 = DIRECTION('',(1.,0.,0.));
#269 = ORIENTED_EDGE('',*,*,#270,.F.);
#270 = EDGE_CURVE('',#271,#263,#273,.T.);
#271 = VERTEX_POINT('',#272);
#272 = CARTESIAN_POINT('',(95.987491998984,89.187478282957,0.));
#273 = LINE('',#274,#275);
#274 = CARTESIAN_POINT('',(95.987491998984,89.187478282957,0.));
#275 = VECTOR('',#276,1.);
#276 = DIRECTION('',(0.,0.,1.));
#277 = ORIENTED_EDGE('',*,*,#278,.F.);
#278 = EDGE_CURVE('',#239,#271,#279,.T.);
#279 = LINE('',#280,#281);
#280 = CARTESIAN_POINT('',(89.200178308357,89.187478282957,0.));
#281 = VECTOR('',#282,1.);
#282 = DIRECTION('',(1.,0.,0.));
#283 = PLANE('',#284);
#284 = AXIS2_PLACEMENT_3D('',#285,#286,#287);
#285 = CARTESIAN_POINT('',(89.200178308357,89.187478282957,0.));
#286 = DIRECTION('',(0.,1.,0.));
#287 = DIRECTION('',(1.,0.,0.));
#288 = ADVANCED_FACE('',(#289),#314,.T.);
#289 = FACE_BOUND('',#290,.T.);
#290 = EDGE_LOOP('',(#291,#292,#300,#308));
#291 = ORIENTED_EDGE('',*,*,#270,.T.);
#292 = ORIENTED_EDGE('',*,*,#293,.T.);
#293 = EDGE_CURVE('',#263,#294,#296,.T.);
#294 = VERTEX_POINT('',#295);
#295 = CARTESIAN_POINT('',(95.987491998984,6.812713741427,1.600028244856
    ));
#296 = LINE('',#297,#298);
#297 = CARTESIAN_POINT('',(95.987491998984,89.187478282957,
    1.600028244856));
#298 = VECTOR('',#299,1.);
#299 = DIRECTION('',(0.,-1.,0.));
#300 = ORIENTED_EDGE('',*,*,#301,.F.);
#301 = EDGE_CURVE('',#302,#294,#304,.T.);
#302 = VERTEX_POINT('',#303);
#303 = CARTESIAN_POINT('',(95.987491998984,6.812713741427,0.));
#304 = LINE('',#305,#306);
#305 = CARTESIAN_POINT('',(95.987491998984,6.812713741427,0.));
#306 = VECTOR('',#307,1.);
#307 = DIRECTION('',(0.,0.,1.));
#308 = ORIENTED_EDGE('',*,*,#309,.F.);
#309 = EDGE_CURVE('',#271,#302,#310,.T.);
#310 = LINE('',#311,#312);
#311 = CARTESIAN_POINT('',(95.987491998984,89.187478282957,0.));
#312 = VECTOR('',#313,1.);
#313 = DIRECTION('',(0.,-1.,0.));
#314 = PLANE('',#315);
#315 = AXIS2_PLACEMENT_3D('',#316,#317,#318);
#316 = CARTESIAN_POINT('',(95.987491998984,89.187478282957,0.));
#317 = DIRECTION('',(1.,0.,-0.));
#318 = DIRECTION('',(0.,-1.,0.));
#319 = ADVANCED_FACE('',(#320),#345,.T.);
#320 = FACE_BOUND('',#321,.T.);
#321 = EDGE_LOOP('',(#322,#323,#331,#339));
#322 = ORIENTED_EDGE('',*,*,#301,.T.);
#323 = ORIENTED_EDGE('',*,*,#324,.T.);
#324 = EDGE_CURVE('',#294,#325,#327,.T.);
#325 = VERTEX_POINT('',#326);
#326 = CARTESIAN_POINT('',(89.200178308357,6.812713741427,1.600028244856
    ));
#327 = LINE('',#328,#329);
#328 = CARTESIAN_POINT('',(95.987491998984,6.812713741427,1.600028244856
    ));
#329 = VECTOR('',#330,1.);
#330 = DIRECTION('',(-1.,0.,0.));
#331 = ORIENTED_EDGE('',*,*,#332,.F.);
#332 = EDGE_CURVE('',#333,#325,#335,.T.);
#333 = VERTEX_POINT('',#334);
#334 = CARTESIAN_POINT('',(89.200178308357,6.812713741427,0.));
#335 = LINE('',#336,#337);
#336 = CARTESIAN_POINT('',(89.200178308357,6.812713741427,0.));
#337 = VECTOR('',#338,1.);
#338 = DIRECTION('',(0.,0.,1.));
#339 = ORIENTED_EDGE('',*,*,#340,.F.);
#340 = EDGE_CURVE('',#302,#333,#341,.T.);
#341 = LINE('',#342,#343);
#342 = CARTESIAN_POINT('',(95.987491998984,6.812713741427,0.));
#343 = VECTOR('',#344,1.);
#344 = DIRECTION('',(-1.,0.,0.));
#345 = PLANE('',#346);
#346 = AXIS2_PLACEMENT_3D('',#347,#348,#349);
#347 = CARTESIAN_POINT('',(95.987491998984,6.812713741427,0.));
#348 = DIRECTION('',(0.,-1.,0.));
#349 = DIRECTION('',(-1.,0.,0.));
#350 = ADVANCED_FACE('',(#351),#378,.F.);
#351 = FACE_BOUND('',#352,.T.);
#352 = EDGE_LOOP('',(#353,#354,#363,#371));
#353 = ORIENTED_EDGE('',*,*,#332,.T.);
#354 = ORIENTED_EDGE('',*,*,#355,.T.);
#355 = EDGE_CURVE('',#325,#356,#358,.T.);
#356 = VERTEX_POINT('',#357);
#357 = CARTESIAN_POINT('',(89.187478282957,6.800013716027,1.600028244856
    ));
#358 = CIRCLE('',#359,1.270002540005E-02);
#359 = AXIS2_PLACEMENT_3D('',#360,#361,#362);
#360 = CARTESIAN_POINT('',(89.200178308357,6.800013716027,1.600028244856
    ));
#361 = DIRECTION('',(0.,0.,1.));
#362 = DIRECTION('',(-3.496384924315E-14,1.,0.));
#363 = ORIENTED_EDGE('',*,*,#364,.F.);
#364 = EDGE_CURVE('',#365,#356,#367,.T.);
#365 = VERTEX_POINT('',#366);
#366 = CARTESIAN_POINT('',(89.187478282957,6.800013716027,0.));
#367 = LINE('',#368,#369);
#368 = CARTESIAN_POINT('',(89.187478282957,6.800013716027,0.));
#369 = VECTOR('',#370,1.);
#370 = DIRECTION('',(0.,0.,1.));
#371 = ORIENTED_EDGE('',*,*,#372,.F.);
#372 = EDGE_CURVE('',#333,#365,#373,.T.);
#373 = CIRCLE('',#374,1.270002540005E-02);
#374 = AXIS2_PLACEMENT_3D('',#375,#376,#377);
#375 = CARTESIAN_POINT('',(89.200178308357,6.800013716027,0.));
#376 = DIRECTION('',(0.,0.,1.));
#377 = DIRECTION('',(-3.496384924315E-14,1.,0.));
#378 = CYLINDRICAL_SURFACE('',#379,1.270002540005E-02);
#379 = AXIS2_PLACEMENT_3D('',#380,#381,#382);
#380 = CARTESIAN_POINT('',(89.200178308357,6.800013716027,0.));
#381 = DIRECTION('',(-0.,-0.,-1.));
#382 = DIRECTION('',(-3.496384924315E-14,1.,0.));
#383 = ADVANCED_FACE('',(#384),#409,.T.);
#384 = FACE_BOUND('',#385,.T.);
#385 = EDGE_LOOP('',(#386,#387,#395,#403));
#386 = ORIENTED_EDGE('',*,*,#364,.T.);
#387 = ORIENTED_EDGE('',*,*,#388,.T.);
#388 = EDGE_CURVE('',#356,#389,#391,.T.);
#389 = VERTEX_POINT('',#390);
#390 = CARTESIAN_POINT('',(89.187478282957,1.270002540005E-02,
    1.600028244856));
#391 = LINE('',#392,#393);
#392 = CARTESIAN_POINT('',(89.187478282957,6.800013716027,1.600028244856
    ));
#393 = VECTOR('',#394,1.);
#394 = DIRECTION('',(0.,-1.,0.));
#395 = ORIENTED_EDGE('',*,*,#396,.F.);
#396 = EDGE_CURVE('',#397,#389,#399,.T.);
#397 = VERTEX_POINT('',#398);
#398 = CARTESIAN_POINT('',(89.187478282957,1.270002540005E-02,0.));
#399 = LINE('',#400,#401);
#400 = CARTESIAN_POINT('',(89.187478282957,1.270002540005E-02,0.));
#401 = VECTOR('',#402,1.);
#402 = DIRECTION('',(0.,0.,1.));
#403 = ORIENTED_EDGE('',*,*,#404,.F.);
#404 = EDGE_CURVE('',#365,#397,#405,.T.);
#405 = LINE('',#406,#407);
#406 = CARTESIAN_POINT('',(89.187478282957,6.800013716027,0.));
#407 = VECTOR('',#408,1.);
#408 = DIRECTION('',(0.,-1.,0.));
#409 = PLANE('',#410);
#410 = AXIS2_PLACEMENT_3D('',#411,#412,#413);
#411 = CARTESIAN_POINT('',(89.187478282957,6.800013716027,0.));
#412 = DIRECTION('',(1.,0.,-0.));
#413 = DIRECTION('',(0.,-1.,0.));
#414 = ADVANCED_FACE('',(#415),#440,.T.);
#415 = FACE_BOUND('',#416,.T.);
#416 = EDGE_LOOP('',(#417,#418,#426,#434));
#417 = ORIENTED_EDGE('',*,*,#396,.T.);
#418 = ORIENTED_EDGE('',*,*,#419,.T.);
#419 = EDGE_CURVE('',#389,#420,#422,.T.);
#420 = VERTEX_POINT('',#421);
#421 = CARTESIAN_POINT('',(6.812713741427,1.270002540005E-02,
    1.600028244856));
#422 = LINE('',#423,#424);
#423 = CARTESIAN_POINT('',(89.187478282957,1.270002540005E-02,
    1.600028244856));
#424 = VECTOR('',#425,1.);
#425 = DIRECTION('',(-1.,0.,0.));
#426 = ORIENTED_EDGE('',*,*,#427,.F.);
#427 = EDGE_CURVE('',#428,#420,#430,.T.);
#428 = VERTEX_POINT('',#429);
#429 = CARTESIAN_POINT('',(6.812713741427,1.270002540005E-02,0.));
#430 = LINE('',#431,#432);
#431 = CARTESIAN_POINT('',(6.812713741427,1.270002540005E-02,0.));
#432 = VECTOR('',#433,1.);
#433 = DIRECTION('',(0.,0.,1.));
#434 = ORIENTED_EDGE('',*,*,#435,.F.);
#435 = EDGE_CURVE('',#397,#428,#436,.T.);
#436 = LINE('',#437,#438);
#437 = CARTESIAN_POINT('',(89.187478282957,1.270002540005E-02,0.));
#438 = VECTOR('',#439,1.);
#439 = DIRECTION('',(-1.,0.,0.));
#440 = PLANE('',#441);
#441 = AXIS2_PLACEMENT_3D('',#442,#443,#444);
#442 = CARTESIAN_POINT('',(89.187478282957,1.270002540005E-02,0.));
#443 = DIRECTION('',(0.,-1.,0.));
#444 = DIRECTION('',(-1.,0.,0.));
#445 = ADVANCED_FACE('',(#446),#471,.T.);
#446 = FACE_BOUND('',#447,.T.);
#447 = EDGE_LOOP('',(#448,#449,#457,#465));
#448 = ORIENTED_EDGE('',*,*,#427,.T.);
#449 = ORIENTED_EDGE('',*,*,#450,.T.);
#450 = EDGE_CURVE('',#420,#451,#453,.T.);
#451 = VERTEX_POINT('',#452);
#452 = CARTESIAN_POINT('',(6.812713741427,6.800013716027,1.600028244856)
  );
#453 = LINE('',#454,#455);
#454 = CARTESIAN_POINT('',(6.812713741427,1.270002540005E-02,
    1.600028244856));
#455 = VECTOR('',#456,1.);
#456 = DIRECTION('',(0.,1.,0.));
#457 = ORIENTED_EDGE('',*,*,#458,.F.);
#458 = EDGE_CURVE('',#459,#451,#461,.T.);
#459 = VERTEX_POINT('',#460);
#460 = CARTESIAN_POINT('',(6.812713741427,6.800013716027,0.));
#461 = LINE('',#462,#463);
#462 = CARTESIAN_POINT('',(6.812713741427,6.800013716027,0.));
#463 = VECTOR('',#464,1.);
#464 = DIRECTION('',(0.,0.,1.));
#465 = ORIENTED_EDGE('',*,*,#466,.F.);
#466 = EDGE_CURVE('',#428,#459,#467,.T.);
#467 = LINE('',#468,#469);
#468 = CARTESIAN_POINT('',(6.812713741427,1.270002540005E-02,0.));
#469 = VECTOR('',#470,1.);
#470 = DIRECTION('',(0.,1.,0.));
#471 = PLANE('',#472);
#472 = AXIS2_PLACEMENT_3D('',#473,#474,#475);
#473 = CARTESIAN_POINT('',(6.812713741427,1.270002540005E-02,0.));
#474 = DIRECTION('',(-1.,0.,0.));
#475 = DIRECTION('',(0.,1.,0.));
#476 = ADVANCED_FACE('',(#477),#504,.F.);
#477 = FACE_BOUND('',#478,.T.);
#478 = EDGE_LOOP('',(#479,#480,#489,#497));
#479 = ORIENTED_EDGE('',*,*,#458,.T.);
#480 = ORIENTED_EDGE('',*,*,#481,.T.);
#481 = EDGE_CURVE('',#451,#482,#484,.T.);
#482 = VERTEX_POINT('',#483);
#483 = CARTESIAN_POINT('',(6.800013716027,6.812713741427,1.600028244856)
  );
#484 = CIRCLE('',#485,1.270002540005E-02);
#485 = AXIS2_PLACEMENT_3D('',#486,#487,#488);
#486 = CARTESIAN_POINT('',(6.800013716027,6.800013716027,1.600028244856)
  );
#487 = DIRECTION('',(0.,0.,1.));
#488 = DIRECTION('',(1.,3.496384924315E-14,-0.));
#489 = ORIENTED_EDGE('',*,*,#490,.F.);
#490 = EDGE_CURVE('',#491,#482,#493,.T.);
#491 = VERTEX_POINT('',#492);
#492 = CARTESIAN_POINT('',(6.800013716027,6.812713741427,0.));
#493 = LINE('',#494,#495);
#494 = CARTESIAN_POINT('',(6.800013716027,6.812713741427,0.));
#495 = VECTOR('',#496,1.);
#496 = DIRECTION('',(0.,0.,1.));
#497 = ORIENTED_EDGE('',*,*,#498,.F.);
#498 = EDGE_CURVE('',#459,#491,#499,.T.);
#499 = CIRCLE('',#500,1.270002540005E-02);
#500 = AXIS2_PLACEMENT_3D('',#501,#502,#503);
#501 = CARTESIAN_POINT('',(6.800013716027,6.800013716027,0.));
#502 = DIRECTION('',(0.,0.,1.));
#503 = DIRECTION('',(1.,3.496384924315E-14,-0.));
#504 = CYLINDRICAL_SURFACE('',#505,1.270002540005E-02);
#505 = AXIS2_PLACEMENT_3D('',#506,#507,#508);
#506 = CARTESIAN_POINT('',(6.800013716027,6.800013716027,0.));
#507 = DIRECTION('',(-0.,-0.,-1.));
#508 = DIRECTION('',(1.,3.496384924315E-14,-0.));
#509 = ADVANCED_FACE('',(#510),#535,.T.);
#510 = FACE_BOUND('',#511,.T.);
#511 = EDGE_LOOP('',(#512,#513,#521,#529));
#512 = ORIENTED_EDGE('',*,*,#490,.T.);
#513 = ORIENTED_EDGE('',*,*,#514,.T.);
#514 = EDGE_CURVE('',#482,#515,#517,.T.);
#515 = VERTEX_POINT('',#516);
#516 = CARTESIAN_POINT('',(1.270002540005E-02,6.812713741427,
    1.600028244856));
#517 = LINE('',#518,#519);
#518 = CARTESIAN_POINT('',(6.800013716027,6.812713741427,1.600028244856)
  );
#519 = VECTOR('',#520,1.);
#520 = DIRECTION('',(-1.,-3.925758231537E-16,0.));
#521 = ORIENTED_EDGE('',*,*,#522,.F.);
#522 = EDGE_CURVE('',#523,#515,#525,.T.);
#523 = VERTEX_POINT('',#524);
#524 = CARTESIAN_POINT('',(1.270002540005E-02,6.812713741427,0.));
#525 = LINE('',#526,#527);
#526 = CARTESIAN_POINT('',(1.270002540005E-02,6.812713741427,0.));
#527 = VECTOR('',#528,1.);
#528 = DIRECTION('',(0.,0.,1.));
#529 = ORIENTED_EDGE('',*,*,#530,.F.);
#530 = EDGE_CURVE('',#491,#523,#531,.T.);
#531 = LINE('',#532,#533);
#532 = CARTESIAN_POINT('',(6.800013716027,6.812713741427,0.));
#533 = VECTOR('',#534,1.);
#534 = DIRECTION('',(-1.,-3.925758231537E-16,0.));
#535 = PLANE('',#536);
#536 = AXIS2_PLACEMENT_3D('',#537,#538,#539);
#537 = CARTESIAN_POINT('',(6.800013716027,6.812713741427,0.));
#538 = DIRECTION('',(3.925758231537E-16,-1.,0.));
#539 = DIRECTION('',(-1.,-3.925758231537E-16,0.));
#540 = ADVANCED_FACE('',(#541),#566,.T.);
#541 = FACE_BOUND('',#542,.T.);
#542 = EDGE_LOOP('',(#543,#544,#552,#560));
#543 = ORIENTED_EDGE('',*,*,#522,.T.);
#544 = ORIENTED_EDGE('',*,*,#545,.T.);
#545 = EDGE_CURVE('',#515,#546,#548,.T.);
#546 = VERTEX_POINT('',#547);
#547 = CARTESIAN_POINT('',(1.270002540006E-02,89.187478282957,
    1.600028244856));
#548 = LINE('',#549,#550);
#549 = CARTESIAN_POINT('',(1.270002540005E-02,6.812713741427,
    1.600028244856));
#550 = VECTOR('',#551,1.);
#551 = DIRECTION('',(5.258412019291E-17,1.,0.));
#552 = ORIENTED_EDGE('',*,*,#553,.F.);
#553 = EDGE_CURVE('',#554,#546,#556,.T.);
#554 = VERTEX_POINT('',#555);
#555 = CARTESIAN_POINT('',(1.270002540006E-02,89.187478282957,0.));
#556 = LINE('',#557,#558);
#557 = CARTESIAN_POINT('',(1.270002540006E-02,89.187478282957,0.));
#558 = VECTOR('',#559,1.);
#559 = DIRECTION('',(0.,0.,1.));
#560 = ORIENTED_EDGE('',*,*,#561,.F.);
#561 = EDGE_CURVE('',#523,#554,#562,.T.);
#562 = LINE('',#563,#564);
#563 = CARTESIAN_POINT('',(1.270002540005E-02,6.812713741427,0.));
#564 = VECTOR('',#565,1.);
#565 = DIRECTION('',(5.258412019291E-17,1.,0.));
#566 = PLANE('',#567);
#567 = AXIS2_PLACEMENT_3D('',#568,#569,#570);
#568 = CARTESIAN_POINT('',(1.270002540005E-02,6.812713741427,0.));
#569 = DIRECTION('',(-1.,5.258412019291E-17,0.));
#570 = DIRECTION('',(5.258412019291E-17,1.,0.));
#571 = ADVANCED_FACE('',(#572),#588,.T.);
#572 = FACE_BOUND('',#573,.T.);
#573 = EDGE_LOOP('',(#574,#575,#581,#582));
#574 = ORIENTED_EDGE('',*,*,#553,.T.);
#575 = ORIENTED_EDGE('',*,*,#576,.T.);
#576 = EDGE_CURVE('',#546,#96,#577,.T.);
#577 = LINE('',#578,#579);
#578 = CARTESIAN_POINT('',(1.270002540006E-02,89.187478282957,
    1.600028244856));
#579 = VECTOR('',#580,1.);
#580 = DIRECTION('',(1.,0.,0.));
#581 = ORIENTED_EDGE('',*,*,#93,.F.);
#582 = ORIENTED_EDGE('',*,*,#583,.F.);
#583 = EDGE_CURVE('',#554,#94,#584,.T.);
#584 = LINE('',#585,#586);
#585 = CARTESIAN_POINT('',(1.270002540006E-02,89.187478282957,0.));
#586 = VECTOR('',#587,1.);
#587 = DIRECTION('',(1.,0.,0.));
#588 = PLANE('',#589);
#589 = AXIS2_PLACEMENT_3D('',#590,#591,#592);
#590 = CARTESIAN_POINT('',(1.270002540006E-02,89.187478282957,0.));
#591 = DIRECTION('',(0.,1.,0.));
#592 = DIRECTION('',(1.,0.,0.));
#593 = ADVANCED_FACE('',(#594),#630,.F.);
#594 = FACE_BOUND('',#595,.T.);
#595 = EDGE_LOOP('',(#596,#606,#615,#623));
#596 = ORIENTED_EDGE('',*,*,#597,.T.);
#597 = EDGE_CURVE('',#598,#600,#602,.T.);
#598 = VERTEX_POINT('',#599);
#599 = CARTESIAN_POINT('',(3.200007366015,34.750068580137,0.));
#600 = VERTEX_POINT('',#601);
#601 = CARTESIAN_POINT('',(3.200007366015,34.750068580137,1.600028244856
    ));
#602 = LINE('',#603,#604);
#603 = CARTESIAN_POINT('',(3.200007366015,34.750068580137,0.));
#604 = VECTOR('',#605,1.);
#605 = DIRECTION('',(0.,0.,1.));
#606 = ORIENTED_EDGE('',*,*,#607,.T.);
#607 = EDGE_CURVE('',#600,#608,#610,.T.);
#608 = VERTEX_POINT('',#609);
#609 = CARTESIAN_POINT('',(1.000002794006,34.750068580137,1.600028244856
    ));
#610 = CIRCLE('',#611,1.100002286005);
#611 = AXIS2_PLACEMENT_3D('',#612,#613,#614);
#612 = CARTESIAN_POINT('',(2.10000508001,34.750068580137,1.600028244856)
  );
#613 = DIRECTION('',(0.,0.,1.));
#614 = DIRECTION('',(1.,1.110223024625E-16,-0.));
#615 = ORIENTED_EDGE('',*,*,#616,.F.);
#616 = EDGE_CURVE('',#617,#608,#619,.T.);
#617 = VERTEX_POINT('',#618);
#618 = CARTESIAN_POINT('',(1.000002794006,34.750068580137,0.));
#619 = LINE('',#620,#621);
#620 = CARTESIAN_POINT('',(1.000002794006,34.750068580137,0.));
#621 = VECTOR('',#622,1.);
#622 = DIRECTION('',(0.,0.,1.));
#623 = ORIENTED_EDGE('',*,*,#624,.F.);
#624 = EDGE_CURVE('',#598,#617,#625,.T.);
#625 = CIRCLE('',#626,1.100002286005);
#626 = AXIS2_PLACEMENT_3D('',#627,#628,#629);
#627 = CARTESIAN_POINT('',(2.10000508001,34.750068580137,0.));
#628 = DIRECTION('',(0.,0.,1.));
#629 = DIRECTION('',(1.,1.110223024625E-16,-0.));
#630 = CYLINDRICAL_SURFACE('',#631,1.100002286005);
#631 = AXIS2_PLACEMENT_3D('',#632,#633,#634);
#632 = CARTESIAN_POINT('',(2.10000508001,34.750068580137,0.));
#633 = DIRECTION('',(-0.,-0.,-1.));
#634 = DIRECTION('',(1.,1.110223024625E-16,-0.));
#635 = ADVANCED_FACE('',(#636),#654,.F.);
#636 = FACE_BOUND('',#637,.T.);
#637 = EDGE_LOOP('',(#638,#639,#646,#647));
#638 = ORIENTED_EDGE('',*,*,#616,.T.);
#639 = ORIENTED_EDGE('',*,*,#640,.T.);
#640 = EDGE_CURVE('',#608,#600,#641,.T.);
#641 = CIRCLE('',#642,1.100002286005);
#642 = AXIS2_PLACEMENT_3D('',#643,#644,#645);
#643 = CARTESIAN_POINT('',(2.10000508001,34.750068580137,1.600028244856)
  );
#644 = DIRECTION('',(0.,0.,1.));
#645 = DIRECTION('',(-1.,-1.110223024625E-16,0.));
#646 = ORIENTED_EDGE('',*,*,#597,.F.);
#647 = ORIENTED_EDGE('',*,*,#648,.F.);
#648 = EDGE_CURVE('',#617,#598,#649,.T.);
#649 = CIRCLE('',#650,1.100002286005);
#650 = AXIS2_PLACEMENT_3D('',#651,#652,#653);
#651 = CARTESIAN_POINT('',(2.10000508001,34.750068580137,0.));
#652 = DIRECTION('',(0.,0.,1.));
#653 = DIRECTION('',(-1.,-1.110223024625E-16,0.));
#654 = CYLINDRICAL_SURFACE('',#655,1.100002286005);
#655 = AXIS2_PLACEMENT_3D('',#656,#657,#658);
#656 = CARTESIAN_POINT('',(2.10000508001,34.750068580137,0.));
#657 = DIRECTION('',(-0.,-0.,-1.));
#658 = DIRECTION('',(-1.,-1.110223024625E-16,0.));
#659 = ADVANCED_FACE('',(#660),#696,.F.);
#660 = FACE_BOUND('',#661,.T.);
#661 = EDGE_LOOP('',(#662,#672,#681,#689));
#662 = ORIENTED_EDGE('',*,*,#663,.T.);
#663 = EDGE_CURVE('',#664,#666,#668,.T.);
#664 = VERTEX_POINT('',#665);
#665 = CARTESIAN_POINT('',(3.200007366015,61.250121920244,0.));
#666 = VERTEX_POINT('',#667);
#667 = CARTESIAN_POINT('',(3.200007366015,61.250121920244,1.600028244856
    ));
#668 = LINE('',#669,#670);
#669 = CARTESIAN_POINT('',(3.200007366015,61.250121920244,0.));
#670 = VECTOR('',#671,1.);
#671 = DIRECTION('',(0.,0.,1.));
#672 = ORIENTED_EDGE('',*,*,#673,.T.);
#673 = EDGE_CURVE('',#666,#674,#676,.T.);
#674 = VERTEX_POINT('',#675);
#675 = CARTESIAN_POINT('',(1.000002794006,61.250121920244,1.600028244856
    ));
#676 = CIRCLE('',#677,1.100002286005);
#677 = AXIS2_PLACEMENT_3D('',#678,#679,#680);
#678 = CARTESIAN_POINT('',(2.10000508001,61.250121920244,1.600028244856)
  );
#679 = DIRECTION('',(0.,0.,1.));
#680 = DIRECTION('',(1.,1.110223024625E-16,-0.));
#681 = ORIENTED_EDGE('',*,*,#682,.F.);
#682 = EDGE_CURVE('',#683,#674,#685,.T.);
#683 = VERTEX_POINT('',#684);
#684 = CARTESIAN_POINT('',(1.000002794006,61.250121920244,0.));
#685 = LINE('',#686,#687);
#686 = CARTESIAN_POINT('',(1.000002794006,61.250121920244,0.));
#687 = VECTOR('',#688,1.);
#688 = DIRECTION('',(0.,0.,1.));
#689 = ORIENTED_EDGE('',*,*,#690,.F.);
#690 = EDGE_CURVE('',#664,#683,#691,.T.);
#691 = CIRCLE('',#692,1.100002286005);
#692 = AXIS2_PLACEMENT_3D('',#693,#694,#695);
#693 = CARTESIAN_POINT('',(2.10000508001,61.250121920244,0.));
#694 = DIRECTION('',(0.,0.,1.));
#695 = DIRECTION('',(1.,1.110223024625E-16,-0.));
#696 = CYLINDRICAL_SURFACE('',#697,1.100002286005);
#697 = AXIS2_PLACEMENT_3D('',#698,#699,#700);
#698 = CARTESIAN_POINT('',(2.10000508001,61.250121920244,0.));
#699 = DIRECTION('',(-0.,-0.,-1.));
#700 = DIRECTION('',(1.,1.110223024625E-16,-0.));
#701 = ADVANCED_FACE('',(#702),#720,.F.);
#702 = FACE_BOUND('',#703,.T.);
#703 = EDGE_LOOP('',(#704,#705,#712,#713));
#704 = ORIENTED_EDGE('',*,*,#682,.T.);
#705 = ORIENTED_EDGE('',*,*,#706,.T.);
#706 = EDGE_CURVE('',#674,#666,#707,.T.);
#707 = CIRCLE('',#708,1.100002286005);
#708 = AXIS2_PLACEMENT_3D('',#709,#710,#711);
#709 = CARTESIAN_POINT('',(2.10000508001,61.250121920244,1.600028244856)
  );
#710 = DIRECTION('',(0.,0.,1.));
#711 = DIRECTION('',(-1.,-1.110223024625E-16,0.));
#712 = ORIENTED_EDGE('',*,*,#663,.F.);
#713 = ORIENTED_EDGE('',*,*,#714,.F.);
#714 = EDGE_CURVE('',#683,#664,#715,.T.);
#715 = CIRCLE('',#716,1.100002286005);
#716 = AXIS2_PLACEMENT_3D('',#717,#718,#719);
#717 = CARTESIAN_POINT('',(2.10000508001,61.250121920244,0.));
#718 = DIRECTION('',(0.,0.,1.));
#719 = DIRECTION('',(-1.,-1.110223024625E-16,0.));
#720 = CYLINDRICAL_SURFACE('',#721,1.100002286005);
#721 = AXIS2_PLACEMENT_3D('',#722,#723,#724);
#722 = CARTESIAN_POINT('',(2.10000508001,61.250121920244,0.));
#723 = DIRECTION('',(-0.,-0.,-1.));
#724 = DIRECTION('',(-1.,-1.110223024625E-16,0.));
#725 = ADVANCED_FACE('',(#726),#762,.F.);
#726 = FACE_BOUND('',#727,.T.);
#727 = EDGE_LOOP('',(#728,#738,#747,#755));
#728 = ORIENTED_EDGE('',*,*,#729,.T.);
#729 = EDGE_CURVE('',#730,#732,#734,.T.);
#730 = VERTEX_POINT('',#731);
#731 = CARTESIAN_POINT('',(11.600022606045,1.800002540005,0.));
#732 = VERTEX_POINT('',#733);
#733 = CARTESIAN_POINT('',(11.600022606045,1.800002540005,1.600028244856
    ));
#734 = LINE('',#735,#736);
#735 = CARTESIAN_POINT('',(11.600022606045,1.800002540005,0.));
#736 = VECTOR('',#737,1.);
#737 = DIRECTION('',(0.,0.,1.));
#738 = ORIENTED_EDGE('',*,*,#739,.T.);
#739 = EDGE_CURVE('',#732,#740,#742,.T.);
#740 = VERTEX_POINT('',#741);
#741 = CARTESIAN_POINT('',(9.400018034036,1.800002540005,1.600028244856)
  );
#742 = CIRCLE('',#743,1.100002286005);
#743 = AXIS2_PLACEMENT_3D('',#744,#745,#746);
#744 = CARTESIAN_POINT('',(10.500020320041,1.800002540005,1.600028244856
    ));
#745 = DIRECTION('',(0.,0.,1.));
#746 = DIRECTION('',(1.,1.110223024625E-16,-0.));
#747 = ORIENTED_EDGE('',*,*,#748,.F.);
#748 = EDGE_CURVE('',#749,#740,#751,.T.);
#749 = VERTEX_POINT('',#750);
#750 = CARTESIAN_POINT('',(9.400018034036,1.800002540005,0.));
#751 = LINE('',#752,#753);
#752 = CARTESIAN_POINT('',(9.400018034036,1.800002540005,0.));
#753 = VECTOR('',#754,1.);
#754 = DIRECTION('',(0.,0.,1.));
#755 = ORIENTED_EDGE('',*,*,#756,.F.);
#756 = EDGE_CURVE('',#730,#749,#757,.T.);
#757 = CIRCLE('',#758,1.100002286005);
#758 = AXIS2_PLACEMENT_3D('',#759,#760,#761);
#759 = CARTESIAN_POINT('',(10.500020320041,1.800002540005,0.));
#760 = DIRECTION('',(0.,0.,1.));
#761 = DIRECTION('',(1.,1.110223024625E-16,-0.));
#762 = CYLINDRICAL_SURFACE('',#763,1.100002286005);
#763 = AXIS2_PLACEMENT_3D('',#764,#765,#766);
#764 = CARTESIAN_POINT('',(10.500020320041,1.800002540005,0.));
#765 = DIRECTION('',(-0.,-0.,-1.));
#766 = DIRECTION('',(1.,1.110223024625E-16,-0.));
#767 = ADVANCED_FACE('',(#768),#786,.F.);
#768 = FACE_BOUND('',#769,.T.);
#769 = EDGE_LOOP('',(#770,#771,#778,#779));
#770 = ORIENTED_EDGE('',*,*,#748,.T.);
#771 = ORIENTED_EDGE('',*,*,#772,.T.);
#772 = EDGE_CURVE('',#740,#732,#773,.T.);
#773 = CIRCLE('',#774,1.100002286005);
#774 = AXIS2_PLACEMENT_3D('',#775,#776,#777);
#775 = CARTESIAN_POINT('',(10.500020320041,1.800002540005,1.600028244856
    ));
#776 = DIRECTION('',(0.,0.,1.));
#777 = DIRECTION('',(-1.,-1.110223024625E-16,0.));
#778 = ORIENTED_EDGE('',*,*,#729,.F.);
#779 = ORIENTED_EDGE('',*,*,#780,.F.);
#780 = EDGE_CURVE('',#749,#730,#781,.T.);
#781 = CIRCLE('',#782,1.100002286005);
#782 = AXIS2_PLACEMENT_3D('',#783,#784,#785);
#783 = CARTESIAN_POINT('',(10.500020320041,1.800002540005,0.));
#784 = DIRECTION('',(0.,0.,1.));
#785 = DIRECTION('',(-1.,-1.110223024625E-16,0.));
#786 = CYLINDRICAL_SURFACE('',#787,1.100002286005);
#787 = AXIS2_PLACEMENT_3D('',#788,#789,#790);
#788 = CARTESIAN_POINT('',(10.500020320041,1.800002540005,0.));
#789 = DIRECTION('',(-0.,-0.,-1.));
#790 = DIRECTION('',(-1.,-1.110223024625E-16,0.));
#791 = ADVANCED_FACE('',(#792),#828,.F.);
#792 = FACE_BOUND('',#793,.T.);
#793 = EDGE_LOOP('',(#794,#804,#813,#821));
#794 = ORIENTED_EDGE('',*,*,#795,.T.);
#795 = EDGE_CURVE('',#796,#798,#800,.T.);
#796 = VERTEX_POINT('',#797);
#797 = CARTESIAN_POINT('',(11.600022606045,94.200187960376,0.));
#798 = VERTEX_POINT('',#799);
#799 = CARTESIAN_POINT('',(11.600022606045,94.200187960376,
    1.600028244856));
#800 = LINE('',#801,#802);
#801 = CARTESIAN_POINT('',(11.600022606045,94.200187960376,0.));
#802 = VECTOR('',#803,1.);
#803 = DIRECTION('',(0.,0.,1.));
#804 = ORIENTED_EDGE('',*,*,#805,.T.);
#805 = EDGE_CURVE('',#798,#806,#808,.T.);
#806 = VERTEX_POINT('',#807);
#807 = CARTESIAN_POINT('',(9.400018034036,94.200187960376,1.600028244856
    ));
#808 = CIRCLE('',#809,1.100002286005);
#809 = AXIS2_PLACEMENT_3D('',#810,#811,#812);
#810 = CARTESIAN_POINT('',(10.500020320041,94.200187960376,
    1.600028244856));
#811 = DIRECTION('',(0.,0.,1.));
#812 = DIRECTION('',(1.,1.110223024625E-16,-0.));
#813 = ORIENTED_EDGE('',*,*,#814,.F.);
#814 = EDGE_CURVE('',#815,#806,#817,.T.);
#815 = VERTEX_POINT('',#816);
#816 = CARTESIAN_POINT('',(9.400018034036,94.200187960376,0.));
#817 = LINE('',#818,#819);
#818 = CARTESIAN_POINT('',(9.400018034036,94.200187960376,0.));
#819 = VECTOR('',#820,1.);
#820 = DIRECTION('',(0.,0.,1.));
#821 = ORIENTED_EDGE('',*,*,#822,.F.);
#822 = EDGE_CURVE('',#796,#815,#823,.T.);
#823 = CIRCLE('',#824,1.100002286005);
#824 = AXIS2_PLACEMENT_3D('',#825,#826,#827);
#825 = CARTESIAN_POINT('',(10.500020320041,94.200187960376,0.));
#826 = DIRECTION('',(0.,0.,1.));
#827 = DIRECTION('',(1.,1.110223024625E-16,-0.));
#828 = CYLINDRICAL_SURFACE('',#829,1.100002286005);
#829 = AXIS2_PLACEMENT_3D('',#830,#831,#832);
#830 = CARTESIAN_POINT('',(10.500020320041,94.200187960376,0.));
#831 = DIRECTION('',(-0.,-0.,-1.));
#832 = DIRECTION('',(1.,1.110223024625E-16,-0.));
#833 = ADVANCED_FACE('',(#834),#852,.F.);
#834 = FACE_BOUND('',#835,.T.);
#835 = EDGE_LOOP('',(#836,#837,#844,#845));
#836 = ORIENTED_EDGE('',*,*,#814,.T.);
#837 = ORIENTED_EDGE('',*,*,#838,.T.);
#838 = EDGE_CURVE('',#806,#798,#839,.T.);
#839 = CIRCLE('',#840,1.100002286005);
#840 = AXIS2_PLACEMENT_3D('',#841,#842,#843);
#841 = CARTESIAN_POINT('',(10.500020320041,94.200187960376,
    1.600028244856));
#842 = DIRECTION('',(0.,0.,1.));
#843 = DIRECTION('',(-1.,-1.110223024625E-16,0.));
#844 = ORIENTED_EDGE('',*,*,#795,.F.);
#845 = ORIENTED_EDGE('',*,*,#846,.F.);
#846 = EDGE_CURVE('',#815,#796,#847,.T.);
#847 = CIRCLE('',#848,1.100002286005);
#848 = AXIS2_PLACEMENT_3D('',#849,#850,#851);
#849 = CARTESIAN_POINT('',(10.500020320041,94.200187960376,0.));
#850 = DIRECTION('',(0.,0.,1.));
#851 = DIRECTION('',(-1.,-1.110223024625E-16,0.));
#852 = CYLINDRICAL_SURFACE('',#853,1.100002286005);
#853 = AXIS2_PLACEMENT_3D('',#854,#855,#856);
#854 = CARTESIAN_POINT('',(10.500020320041,94.200187960376,0.));
#855 = DIRECTION('',(-0.,-0.,-1.));
#856 = DIRECTION('',(-1.,-1.110223024625E-16,0.));
#857 = ADVANCED_FACE('',(#858),#894,.F.);
#858 = FACE_BOUND('',#859,.T.);
#859 = EDGE_LOOP('',(#860,#870,#879,#887));
#860 = ORIENTED_EDGE('',*,*,#861,.T.);
#861 = EDGE_CURVE('',#862,#864,#866,.T.);
#862 = VERTEX_POINT('',#863);
#863 = CARTESIAN_POINT('',(19.600040386081,2.10000508001,0.));
#864 = VERTEX_POINT('',#865);
#865 = CARTESIAN_POINT('',(19.600040386081,2.10000508001,1.600028244856)
  );
#866 = LINE('',#867,#868);
#867 = CARTESIAN_POINT('',(19.600040386081,2.10000508001,0.));
#868 = VECTOR('',#869,1.);
#869 = DIRECTION('',(0.,0.,1.));
#870 = ORIENTED_EDGE('',*,*,#871,.T.);
#871 = EDGE_CURVE('',#864,#872,#874,.T.);
#872 = VERTEX_POINT('',#873);
#873 = CARTESIAN_POINT('',(17.400035814072,2.10000508001,1.600028244856)
  );
#874 = CIRCLE('',#875,1.100002286005);
#875 = AXIS2_PLACEMENT_3D('',#876,#877,#878);
#876 = CARTESIAN_POINT('',(18.500038100076,2.10000508001,1.600028244856)
  );
#877 = DIRECTION('',(0.,0.,1.));
#878 = DIRECTION('',(1.,1.110223024625E-16,-0.));
#879 = ORIENTED_EDGE('',*,*,#880,.F.);
#880 = EDGE_CURVE('',#881,#872,#883,.T.);
#881 = VERTEX_POINT('',#882);
#882 = CARTESIAN_POINT('',(17.400035814072,2.10000508001,0.));
#883 = LINE('',#884,#885);
#884 = CARTESIAN_POINT('',(17.400035814072,2.10000508001,0.));
#885 = VECTOR('',#886,1.);
#886 = DIRECTION('',(0.,0.,1.));
#887 = ORIENTED_EDGE('',*,*,#888,.F.);
#888 = EDGE_CURVE('',#862,#881,#889,.T.);
#889 = CIRCLE('',#890,1.100002286005);
#890 = AXIS2_PLACEMENT_3D('',#891,#892,#893);
#891 = CARTESIAN_POINT('',(18.500038100076,2.10000508001,0.));
#892 = DIRECTION('',(0.,0.,1.));
#893 = DIRECTION('',(1.,1.110223024625E-16,-0.));
#894 = CYLINDRICAL_SURFACE('',#895,1.100002286005);
#895 = AXIS2_PLACEMENT_3D('',#896,#897,#898);
#896 = CARTESIAN_POINT('',(18.500038100076,2.10000508001,0.));
#897 = DIRECTION('',(-0.,-0.,-1.));
#898 = DIRECTION('',(1.,1.110223024625E-16,-0.));
#899 = ADVANCED_FACE('',(#900),#918,.F.);
#900 = FACE_BOUND('',#901,.T.);
#901 = EDGE_LOOP('',(#902,#903,#910,#911));
#902 = ORIENTED_EDGE('',*,*,#880,.T.);
#903 = ORIENTED_EDGE('',*,*,#904,.T.);
#904 = EDGE_CURVE('',#872,#864,#905,.T.);
#905 = CIRCLE('',#906,1.100002286005);
#906 = AXIS2_PLACEMENT_3D('',#907,#908,#909);
#907 = CARTESIAN_POINT('',(18.500038100076,2.10000508001,1.600028244856)
  );
#908 = DIRECTION('',(0.,0.,1.));
#909 = DIRECTION('',(-1.,-1.110223024625E-16,0.));
#910 = ORIENTED_EDGE('',*,*,#861,.F.);
#911 = ORIENTED_EDGE('',*,*,#912,.F.);
#912 = EDGE_CURVE('',#881,#862,#913,.T.);
#913 = CIRCLE('',#914,1.100002286005);
#914 = AXIS2_PLACEMENT_3D('',#915,#916,#917);
#915 = CARTESIAN_POINT('',(18.500038100076,2.10000508001,0.));
#916 = DIRECTION('',(0.,0.,1.));
#917 = DIRECTION('',(-1.,-1.110223024625E-16,0.));
#918 = CYLINDRICAL_SURFACE('',#919,1.100002286005);
#919 = AXIS2_PLACEMENT_3D('',#920,#921,#922);
#920 = CARTESIAN_POINT('',(18.500038100076,2.10000508001,0.));
#921 = DIRECTION('',(-0.,-0.,-1.));
#922 = DIRECTION('',(-1.,-1.110223024625E-16,0.));
#923 = ADVANCED_FACE('',(#924),#960,.F.);
#924 = FACE_BOUND('',#925,.T.);
#925 = EDGE_LOOP('',(#926,#936,#945,#953));
#926 = ORIENTED_EDGE('',*,*,#927,.T.);
#927 = EDGE_CURVE('',#928,#930,#932,.T.);
#928 = VERTEX_POINT('',#929);
#929 = CARTESIAN_POINT('',(19.600040386081,93.900187960376,0.));
#930 = VERTEX_POINT('',#931);
#931 = CARTESIAN_POINT('',(19.600040386081,93.900187960376,
    1.600028244856));
#932 = LINE('',#933,#934);
#933 = CARTESIAN_POINT('',(19.600040386081,93.900187960376,0.));
#934 = VECTOR('',#935,1.);
#935 = DIRECTION('',(0.,0.,1.));
#936 = ORIENTED_EDGE('',*,*,#937,.T.);
#937 = EDGE_CURVE('',#930,#938,#940,.T.);
#938 = VERTEX_POINT('',#939);
#939 = CARTESIAN_POINT('',(17.400035814072,93.900187960376,
    1.600028244856));
#940 = CIRCLE('',#941,1.100002286005);
#941 = AXIS2_PLACEMENT_3D('',#942,#943,#944);
#942 = CARTESIAN_POINT('',(18.500038100076,93.900187960376,
    1.600028244856));
#943 = DIRECTION('',(0.,0.,1.));
#944 = DIRECTION('',(1.,1.110223024625E-16,-0.));
#945 = ORIENTED_EDGE('',*,*,#946,.F.);
#946 = EDGE_CURVE('',#947,#938,#949,.T.);
#947 = VERTEX_POINT('',#948);
#948 = CARTESIAN_POINT('',(17.400035814072,93.900187960376,0.));
#949 = LINE('',#950,#951);
#950 = CARTESIAN_POINT('',(17.400035814072,93.900187960376,0.));
#951 = VECTOR('',#952,1.);
#952 = DIRECTION('',(0.,0.,1.));
#953 = ORIENTED_EDGE('',*,*,#954,.F.);
#954 = EDGE_CURVE('',#928,#947,#955,.T.);
#955 = CIRCLE('',#956,1.100002286005);
#956 = AXIS2_PLACEMENT_3D('',#957,#958,#959);
#957 = CARTESIAN_POINT('',(18.500038100076,93.900187960376,0.));
#958 = DIRECTION('',(0.,0.,1.));
#959 = DIRECTION('',(1.,1.110223024625E-16,-0.));
#960 = CYLINDRICAL_SURFACE('',#961,1.100002286005);
#961 = AXIS2_PLACEMENT_3D('',#962,#963,#964);
#962 = CARTESIAN_POINT('',(18.500038100076,93.900187960376,0.));
#963 = DIRECTION('',(-0.,-0.,-1.));
#964 = DIRECTION('',(1.,1.110223024625E-16,-0.));
#965 = ADVANCED_FACE('',(#966),#984,.F.);
#966 = FACE_BOUND('',#967,.T.);
#967 = EDGE_LOOP('',(#968,#969,#976,#977));
#968 = ORIENTED_EDGE('',*,*,#946,.T.);
#969 = ORIENTED_EDGE('',*,*,#970,.T.);
#970 = EDGE_CURVE('',#938,#930,#971,.T.);
#971 = CIRCLE('',#972,1.100002286005);
#972 = AXIS2_PLACEMENT_3D('',#973,#974,#975);
#973 = CARTESIAN_POINT('',(18.500038100076,93.900187960376,
    1.600028244856));
#974 = DIRECTION('',(0.,0.,1.));
#975 = DIRECTION('',(-1.,-1.110223024625E-16,0.));
#976 = ORIENTED_EDGE('',*,*,#927,.F.);
#977 = ORIENTED_EDGE('',*,*,#978,.F.);
#978 = EDGE_CURVE('',#947,#928,#979,.T.);
#979 = CIRCLE('',#980,1.100002286005);
#980 = AXIS2_PLACEMENT_3D('',#981,#982,#983);
#981 = CARTESIAN_POINT('',(18.500038100076,93.900187960376,0.));
#982 = DIRECTION('',(0.,0.,1.));
#983 = DIRECTION('',(-1.,-1.110223024625E-16,0.));
#984 = CYLINDRICAL_SURFACE('',#985,1.100002286005);
#985 = AXIS2_PLACEMENT_3D('',#986,#987,#988);
#986 = CARTESIAN_POINT('',(18.500038100076,93.900187960376,0.));
#987 = DIRECTION('',(-0.,-0.,-1.));
#988 = DIRECTION('',(-1.,-1.110223024625E-16,0.));
#989 = ADVANCED_FACE('',(#990),#1026,.F.);
#990 = FACE_BOUND('',#991,.T.);
#991 = EDGE_LOOP('',(#992,#1002,#1011,#1019));
#992 = ORIENTED_EDGE('',*,*,#993,.T.);
#993 = EDGE_CURVE('',#994,#996,#998,.T.);
#994 = VERTEX_POINT('',#995);
#995 = CARTESIAN_POINT('',(78.600157226314,2.10000508001,0.));
#996 = VERTEX_POINT('',#997);
#997 = CARTESIAN_POINT('',(78.600157226314,2.10000508001,1.600028244856)
  );
#998 = LINE('',#999,#1000);
#999 = CARTESIAN_POINT('',(78.600157226314,2.10000508001,0.));
#1000 = VECTOR('',#1001,1.);
#1001 = DIRECTION('',(0.,0.,1.));
#1002 = ORIENTED_EDGE('',*,*,#1003,.T.);
#1003 = EDGE_CURVE('',#996,#1004,#1006,.T.);
#1004 = VERTEX_POINT('',#1005);
#1005 = CARTESIAN_POINT('',(76.400152654305,2.10000508001,1.600028244856
    ));
#1006 = CIRCLE('',#1007,1.100002286005);
#1007 = AXIS2_PLACEMENT_3D('',#1008,#1009,#1010);
#1008 = CARTESIAN_POINT('',(77.50015494031,2.10000508001,1.600028244856)
  );
#1009 = DIRECTION('',(0.,0.,1.));
#1010 = DIRECTION('',(1.,1.110223024625E-16,-0.));
#1011 = ORIENTED_EDGE('',*,*,#1012,.F.);
#1012 = EDGE_CURVE('',#1013,#1004,#1015,.T.);
#1013 = VERTEX_POINT('',#1014);
#1014 = CARTESIAN_POINT('',(76.400152654305,2.10000508001,0.));
#1015 = LINE('',#1016,#1017);
#1016 = CARTESIAN_POINT('',(76.400152654305,2.10000508001,0.));
#1017 = VECTOR('',#1018,1.);
#1018 = DIRECTION('',(0.,0.,1.));
#1019 = ORIENTED_EDGE('',*,*,#1020,.F.);
#1020 = EDGE_CURVE('',#994,#1013,#1021,.T.);
#1021 = CIRCLE('',#1022,1.100002286005);
#1022 = AXIS2_PLACEMENT_3D('',#1023,#1024,#1025);
#1023 = CARTESIAN_POINT('',(77.50015494031,2.10000508001,0.));
#1024 = DIRECTION('',(0.,0.,1.));
#1025 = DIRECTION('',(1.,1.110223024625E-16,-0.));
#1026 = CYLINDRICAL_SURFACE('',#1027,1.100002286005);
#1027 = AXIS2_PLACEMENT_3D('',#1028,#1029,#1030);
#1028 = CARTESIAN_POINT('',(77.50015494031,2.10000508001,0.));
#1029 = DIRECTION('',(-0.,-0.,-1.));
#1030 = DIRECTION('',(1.,1.110223024625E-16,-0.));
#1031 = ADVANCED_FACE('',(#1032),#1050,.F.);
#1032 = FACE_BOUND('',#1033,.T.);
#1033 = EDGE_LOOP('',(#1034,#1035,#1042,#1043));
#1034 = ORIENTED_EDGE('',*,*,#1012,.T.);
#1035 = ORIENTED_EDGE('',*,*,#1036,.T.);
#1036 = EDGE_CURVE('',#1004,#996,#1037,.T.);
#1037 = CIRCLE('',#1038,1.100002286005);
#1038 = AXIS2_PLACEMENT_3D('',#1039,#1040,#1041);
#1039 = CARTESIAN_POINT('',(77.50015494031,2.10000508001,1.600028244856)
  );
#1040 = DIRECTION('',(0.,0.,1.));
#1041 = DIRECTION('',(-1.,-1.110223024625E-16,0.));
#1042 = ORIENTED_EDGE('',*,*,#993,.F.);
#1043 = ORIENTED_EDGE('',*,*,#1044,.F.);
#1044 = EDGE_CURVE('',#1013,#994,#1045,.T.);
#1045 = CIRCLE('',#1046,1.100002286005);
#1046 = AXIS2_PLACEMENT_3D('',#1047,#1048,#1049);
#1047 = CARTESIAN_POINT('',(77.50015494031,2.10000508001,0.));
#1048 = DIRECTION('',(0.,0.,1.));
#1049 = DIRECTION('',(-1.,-1.110223024625E-16,0.));
#1050 = CYLINDRICAL_SURFACE('',#1051,1.100002286005);
#1051 = AXIS2_PLACEMENT_3D('',#1052,#1053,#1054);
#1052 = CARTESIAN_POINT('',(77.50015494031,2.10000508001,0.));
#1053 = DIRECTION('',(-0.,-0.,-1.));
#1054 = DIRECTION('',(-1.,-1.110223024625E-16,0.));
#1055 = ADVANCED_FACE('',(#1056),#1092,.F.);
#1056 = FACE_BOUND('',#1057,.T.);
#1057 = EDGE_LOOP('',(#1058,#1068,#1077,#1085));
#1058 = ORIENTED_EDGE('',*,*,#1059,.T.);
#1059 = EDGE_CURVE('',#1060,#1062,#1064,.T.);
#1060 = VERTEX_POINT('',#1061);
#1061 = CARTESIAN_POINT('',(78.600157226314,93.900187960376,0.));
#1062 = VERTEX_POINT('',#1063);
#1063 = CARTESIAN_POINT('',(78.600157226314,93.900187960376,
    1.600028244856));
#1064 = LINE('',#1065,#1066);
#1065 = CARTESIAN_POINT('',(78.600157226314,93.900187960376,0.));
#1066 = VECTOR('',#1067,1.);
#1067 = DIRECTION('',(0.,0.,1.));
#1068 = ORIENTED_EDGE('',*,*,#1069,.T.);
#1069 = EDGE_CURVE('',#1062,#1070,#1072,.T.);
#1070 = VERTEX_POINT('',#1071);
#1071 = CARTESIAN_POINT('',(76.400152654305,93.900187960376,
    1.600028244856));
#1072 = CIRCLE('',#1073,1.100002286005);
#1073 = AXIS2_PLACEMENT_3D('',#1074,#1075,#1076);
#1074 = CARTESIAN_POINT('',(77.50015494031,93.900187960376,
    1.600028244856));
#1075 = DIRECTION('',(0.,0.,1.));
#1076 = DIRECTION('',(1.,1.110223024625E-16,-0.));
#1077 = ORIENTED_EDGE('',*,*,#1078,.F.);
#1078 = EDGE_CURVE('',#1079,#1070,#1081,.T.);
#1079 = VERTEX_POINT('',#1080);
#1080 = CARTESIAN_POINT('',(76.400152654305,93.900187960376,0.));
#1081 = LINE('',#1082,#1083);
#1082 = CARTESIAN_POINT('',(76.400152654305,93.900187960376,0.));
#1083 = VECTOR('',#1084,1.);
#1084 = DIRECTION('',(0.,0.,1.));
#1085 = ORIENTED_EDGE('',*,*,#1086,.F.);
#1086 = EDGE_CURVE('',#1060,#1079,#1087,.T.);
#1087 = CIRCLE('',#1088,1.100002286005);
#1088 = AXIS2_PLACEMENT_3D('',#1089,#1090,#1091);
#1089 = CARTESIAN_POINT('',(77.50015494031,93.900187960376,0.));
#1090 = DIRECTION('',(0.,0.,1.));
#1091 = DIRECTION('',(1.,1.110223024625E-16,-0.));
#1092 = CYLINDRICAL_SURFACE('',#1093,1.100002286005);
#1093 = AXIS2_PLACEMENT_3D('',#1094,#1095,#1096);
#1094 = CARTESIAN_POINT('',(77.50015494031,93.900187960376,0.));
#1095 = DIRECTION('',(-0.,-0.,-1.));
#1096 = DIRECTION('',(1.,1.110223024625E-16,-0.));
#1097 = ADVANCED_FACE('',(#1098),#1116,.F.);
#1098 = FACE_BOUND('',#1099,.T.);
#1099 = EDGE_LOOP('',(#1100,#1101,#1108,#1109));
#1100 = ORIENTED_EDGE('',*,*,#1078,.T.);
#1101 = ORIENTED_EDGE('',*,*,#1102,.T.);
#1102 = EDGE_CURVE('',#1070,#1062,#1103,.T.);
#1103 = CIRCLE('',#1104,1.100002286005);
#1104 = AXIS2_PLACEMENT_3D('',#1105,#1106,#1107);
#1105 = CARTESIAN_POINT('',(77.50015494031,93.900187960376,
    1.600028244856));
#1106 = DIRECTION('',(0.,0.,1.));
#1107 = DIRECTION('',(-1.,-1.110223024625E-16,0.));
#1108 = ORIENTED_EDGE('',*,*,#1059,.F.);
#1109 = ORIENTED_EDGE('',*,*,#1110,.F.);
#1110 = EDGE_CURVE('',#1079,#1060,#1111,.T.);
#1111 = CIRCLE('',#1112,1.100002286005);
#1112 = AXIS2_PLACEMENT_3D('',#1113,#1114,#1115);
#1113 = CARTESIAN_POINT('',(77.50015494031,93.900187960376,0.));
#1114 = DIRECTION('',(0.,0.,1.));
#1115 = DIRECTION('',(-1.,-1.110223024625E-16,0.));
#1116 = CYLINDRICAL_SURFACE('',#1117,1.100002286005);
#1117 = AXIS2_PLACEMENT_3D('',#1118,#1119,#1120);
#1118 = CARTESIAN_POINT('',(77.50015494031,93.900187960376,0.));
#1119 = DIRECTION('',(-0.,-0.,-1.));
#1120 = DIRECTION('',(-1.,-1.110223024625E-16,0.));
#1121 = ADVANCED_FACE('',(#1122),#1158,.F.);
#1122 = FACE_BOUND('',#1123,.T.);
#1123 = EDGE_LOOP('',(#1124,#1134,#1143,#1151));
#1124 = ORIENTED_EDGE('',*,*,#1125,.T.);
#1125 = EDGE_CURVE('',#1126,#1128,#1130,.T.);
#1126 = VERTEX_POINT('',#1127);
#1127 = CARTESIAN_POINT('',(86.600172466345,1.800002540005,0.));
#1128 = VERTEX_POINT('',#1129);
#1129 = CARTESIAN_POINT('',(86.600172466345,1.800002540005,
    1.600028244856));
#1130 = LINE('',#1131,#1132);
#1131 = CARTESIAN_POINT('',(86.600172466345,1.800002540005,0.));
#1132 = VECTOR('',#1133,1.);
#1133 = DIRECTION('',(0.,0.,1.));
#1134 = ORIENTED_EDGE('',*,*,#1135,.T.);
#1135 = EDGE_CURVE('',#1128,#1136,#1138,.T.);
#1136 = VERTEX_POINT('',#1137);
#1137 = CARTESIAN_POINT('',(84.400167894336,1.800002540005,
    1.600028244856));
#1138 = CIRCLE('',#1139,1.100002286005);
#1139 = AXIS2_PLACEMENT_3D('',#1140,#1141,#1142);
#1140 = CARTESIAN_POINT('',(85.50017018034,1.800002540005,1.600028244856
    ));
#1141 = DIRECTION('',(0.,0.,1.));
#1142 = DIRECTION('',(1.,1.110223024625E-16,-0.));
#1143 = ORIENTED_EDGE('',*,*,#1144,.F.);
#1144 = EDGE_CURVE('',#1145,#1136,#1147,.T.);
#1145 = VERTEX_POINT('',#1146);
#1146 = CARTESIAN_POINT('',(84.400167894336,1.800002540005,0.));
#1147 = LINE('',#1148,#1149);
#1148 = CARTESIAN_POINT('',(84.400167894336,1.800002540005,0.));
#1149 = VECTOR('',#1150,1.);
#1150 = DIRECTION('',(0.,0.,1.));
#1151 = ORIENTED_EDGE('',*,*,#1152,.F.);
#1152 = EDGE_CURVE('',#1126,#1145,#1153,.T.);
#1153 = CIRCLE('',#1154,1.100002286005);
#1154 = AXIS2_PLACEMENT_3D('',#1155,#1156,#1157);
#1155 = CARTESIAN_POINT('',(85.50017018034,1.800002540005,0.));
#1156 = DIRECTION('',(0.,0.,1.));
#1157 = DIRECTION('',(1.,1.110223024625E-16,-0.));
#1158 = CYLINDRICAL_SURFACE('',#1159,1.100002286005);
#1159 = AXIS2_PLACEMENT_3D('',#1160,#1161,#1162);
#1160 = CARTESIAN_POINT('',(85.50017018034,1.800002540005,0.));
#1161 = DIRECTION('',(-0.,-0.,-1.));
#1162 = DIRECTION('',(1.,1.110223024625E-16,-0.));
#1163 = ADVANCED_FACE('',(#1164),#1182,.F.);
#1164 = FACE_BOUND('',#1165,.T.);
#1165 = EDGE_LOOP('',(#1166,#1167,#1174,#1175));
#1166 = ORIENTED_EDGE('',*,*,#1144,.T.);
#1167 = ORIENTED_EDGE('',*,*,#1168,.T.);
#1168 = EDGE_CURVE('',#1136,#1128,#1169,.T.);
#1169 = CIRCLE('',#1170,1.100002286005);
#1170 = AXIS2_PLACEMENT_3D('',#1171,#1172,#1173);
#1171 = CARTESIAN_POINT('',(85.50017018034,1.800002540005,1.600028244856
    ));
#1172 = DIRECTION('',(0.,0.,1.));
#1173 = DIRECTION('',(-1.,-1.110223024625E-16,0.));
#1174 = ORIENTED_EDGE('',*,*,#1125,.F.);
#1175 = ORIENTED_EDGE('',*,*,#1176,.F.);
#1176 = EDGE_CURVE('',#1145,#1126,#1177,.T.);
#1177 = CIRCLE('',#1178,1.100002286005);
#1178 = AXIS2_PLACEMENT_3D('',#1179,#1180,#1181);
#1179 = CARTESIAN_POINT('',(85.50017018034,1.800002540005,0.));
#1180 = DIRECTION('',(0.,0.,1.));
#1181 = DIRECTION('',(-1.,-1.110223024625E-16,0.));
#1182 = CYLINDRICAL_SURFACE('',#1183,1.100002286005);
#1183 = AXIS2_PLACEMENT_3D('',#1184,#1185,#1186);
#1184 = CARTESIAN_POINT('',(85.50017018034,1.800002540005,0.));
#1185 = DIRECTION('',(-0.,-0.,-1.));
#1186 = DIRECTION('',(-1.,-1.110223024625E-16,0.));
#1187 = ADVANCED_FACE('',(#1188),#1224,.F.);
#1188 = FACE_BOUND('',#1189,.T.);
#1189 = EDGE_LOOP('',(#1190,#1200,#1209,#1217));
#1190 = ORIENTED_EDGE('',*,*,#1191,.T.);
#1191 = EDGE_CURVE('',#1192,#1194,#1196,.T.);
#1192 = VERTEX_POINT('',#1193);
#1193 = CARTESIAN_POINT('',(86.600172466345,94.200187960376,0.));
#1194 = VERTEX_POINT('',#1195);
#1195 = CARTESIAN_POINT('',(86.600172466345,94.200187960376,
    1.600028244856));
#1196 = LINE('',#1197,#1198);
#1197 = CARTESIAN_POINT('',(86.600172466345,94.200187960376,0.));
#1198 = VECTOR('',#1199,1.);
#1199 = DIRECTION('',(0.,0.,1.));
#1200 = ORIENTED_EDGE('',*,*,#1201,.T.);
#1201 = EDGE_CURVE('',#1194,#1202,#1204,.T.);
#1202 = VERTEX_POINT('',#1203);
#1203 = CARTESIAN_POINT('',(84.400167894336,94.200187960376,
    1.600028244856));
#1204 = CIRCLE('',#1205,1.100002286005);
#1205 = AXIS2_PLACEMENT_3D('',#1206,#1207,#1208);
#1206 = CARTESIAN_POINT('',(85.50017018034,94.200187960376,
    1.600028244856));
#1207 = DIRECTION('',(0.,0.,1.));
#1208 = DIRECTION('',(1.,1.110223024625E-16,-0.));
#1209 = ORIENTED_EDGE('',*,*,#1210,.F.);
#1210 = EDGE_CURVE('',#1211,#1202,#1213,.T.);
#1211 = VERTEX_POINT('',#1212);
#1212 = CARTESIAN_POINT('',(84.400167894336,94.200187960376,0.));
#1213 = LINE('',#1214,#1215);
#1214 = CARTESIAN_POINT('',(84.400167894336,94.200187960376,0.));
#1215 = VECTOR('',#1216,1.);
#1216 = DIRECTION('',(0.,0.,1.));
#1217 = ORIENTED_EDGE('',*,*,#1218,.F.);
#1218 = EDGE_CURVE('',#1192,#1211,#1219,.T.);
#1219 = CIRCLE('',#1220,1.100002286005);
#1220 = AXIS2_PLACEMENT_3D('',#1221,#1222,#1223);
#1221 = CARTESIAN_POINT('',(85.50017018034,94.200187960376,0.));
#1222 = DIRECTION('',(0.,0.,1.));
#1223 = DIRECTION('',(1.,1.110223024625E-16,-0.));
#1224 = CYLINDRICAL_SURFACE('',#1225,1.100002286005);
#1225 = AXIS2_PLACEMENT_3D('',#1226,#1227,#1228);
#1226 = CARTESIAN_POINT('',(85.50017018034,94.200187960376,0.));
#1227 = DIRECTION('',(-0.,-0.,-1.));
#1228 = DIRECTION('',(1.,1.110223024625E-16,-0.));
#1229 = ADVANCED_FACE('',(#1230),#1248,.F.);
#1230 = FACE_BOUND('',#1231,.T.);
#1231 = EDGE_LOOP('',(#1232,#1233,#1240,#1241));
#1232 = ORIENTED_EDGE('',*,*,#1210,.T.);
#1233 = ORIENTED_EDGE('',*,*,#1234,.T.);
#1234 = EDGE_CURVE('',#1202,#1194,#1235,.T.);
#1235 = CIRCLE('',#1236,1.100002286005);
#1236 = AXIS2_PLACEMENT_3D('',#1237,#1238,#1239);
#1237 = CARTESIAN_POINT('',(85.50017018034,94.200187960376,
    1.600028244856));
#1238 = DIRECTION('',(0.,0.,1.));
#1239 = DIRECTION('',(-1.,-1.110223024625E-16,0.));
#1240 = ORIENTED_EDGE('',*,*,#1191,.F.);
#1241 = ORIENTED_EDGE('',*,*,#1242,.F.);
#1242 = EDGE_CURVE('',#1211,#1192,#1243,.T.);
#1243 = CIRCLE('',#1244,1.100002286005);
#1244 = AXIS2_PLACEMENT_3D('',#1245,#1246,#1247);
#1245 = CARTESIAN_POINT('',(85.50017018034,94.200187960376,0.));
#1246 = DIRECTION('',(0.,0.,1.));
#1247 = DIRECTION('',(-1.,-1.110223024625E-16,0.));
#1248 = CYLINDRICAL_SURFACE('',#1249,1.100002286005);
#1249 = AXIS2_PLACEMENT_3D('',#1250,#1251,#1252);
#1250 = CARTESIAN_POINT('',(85.50017018034,94.200187960376,0.));
#1251 = DIRECTION('',(-0.,-0.,-1.));
#1252 = DIRECTION('',(-1.,-1.110223024625E-16,0.));
#1253 = ADVANCED_FACE('',(#1254),#1290,.F.);
#1254 = FACE_BOUND('',#1255,.T.);
#1255 = EDGE_LOOP('',(#1256,#1266,#1275,#1283));
#1256 = ORIENTED_EDGE('',*,*,#1257,.T.);
#1257 = EDGE_CURVE('',#1258,#1260,#1262,.T.);
#1258 = VERTEX_POINT('',#1259);
#1259 = CARTESIAN_POINT('',(95.000190246381,61.250121920244,0.));
#1260 = VERTEX_POINT('',#1261);
#1261 = CARTESIAN_POINT('',(95.000190246381,61.250121920244,
    1.600028244856));
#1262 = LINE('',#1263,#1264);
#1263 = CARTESIAN_POINT('',(95.000190246381,61.250121920244,0.));
#1264 = VECTOR('',#1265,1.);
#1265 = DIRECTION('',(0.,0.,1.));
#1266 = ORIENTED_EDGE('',*,*,#1267,.T.);
#1267 = EDGE_CURVE('',#1260,#1268,#1270,.T.);
#1268 = VERTEX_POINT('',#1269);
#1269 = CARTESIAN_POINT('',(92.800185674371,61.250121920244,
    1.600028244856));
#1270 = CIRCLE('',#1271,1.100002286005);
#1271 = AXIS2_PLACEMENT_3D('',#1272,#1273,#1274);
#1272 = CARTESIAN_POINT('',(93.900187960376,61.250121920244,
    1.600028244856));
#1273 = DIRECTION('',(0.,0.,1.));
#1274 = DIRECTION('',(1.,1.110223024625E-16,-0.));
#1275 = ORIENTED_EDGE('',*,*,#1276,.F.);
#1276 = EDGE_CURVE('',#1277,#1268,#1279,.T.);
#1277 = VERTEX_POINT('',#1278);
#1278 = CARTESIAN_POINT('',(92.800185674371,61.250121920244,0.));
#1279 = LINE('',#1280,#1281);
#1280 = CARTESIAN_POINT('',(92.800185674371,61.250121920244,0.));
#1281 = VECTOR('',#1282,1.);
#1282 = DIRECTION('',(0.,0.,1.));
#1283 = ORIENTED_EDGE('',*,*,#1284,.F.);
#1284 = EDGE_CURVE('',#1258,#1277,#1285,.T.);
#1285 = CIRCLE('',#1286,1.100002286005);
#1286 = AXIS2_PLACEMENT_3D('',#1287,#1288,#1289);
#1287 = CARTESIAN_POINT('',(93.900187960376,61.250121920244,0.));
#1288 = DIRECTION('',(0.,0.,1.));
#1289 = DIRECTION('',(1.,1.110223024625E-16,-0.));
#1290 = CYLINDRICAL_SURFACE('',#1291,1.100002286005);
#1291 = AXIS2_PLACEMENT_3D('',#1292,#1293,#1294);
#1292 = CARTESIAN_POINT('',(93.900187960376,61.250121920244,0.));
#1293 = DIRECTION('',(-0.,-0.,-1.));
#1294 = DIRECTION('',(1.,1.110223024625E-16,-0.));
#1295 = ADVANCED_FACE('',(#1296),#1314,.F.);
#1296 = FACE_BOUND('',#1297,.T.);
#1297 = EDGE_LOOP('',(#1298,#1299,#1306,#1307));
#1298 = ORIENTED_EDGE('',*,*,#1276,.T.);
#1299 = ORIENTED_EDGE('',*,*,#1300,.T.);
#1300 = EDGE_CURVE('',#1268,#1260,#1301,.T.);
#1301 = CIRCLE('',#1302,1.100002286005);
#1302 = AXIS2_PLACEMENT_3D('',#1303,#1304,#1305);
#1303 = CARTESIAN_POINT('',(93.900187960376,61.250121920244,
    1.600028244856));
#1304 = DIRECTION('',(0.,0.,1.));
#1305 = DIRECTION('',(-1.,-1.110223024625E-16,0.));
#1306 = ORIENTED_EDGE('',*,*,#1257,.F.);
#1307 = ORIENTED_EDGE('',*,*,#1308,.F.);
#1308 = EDGE_CURVE('',#1277,#1258,#1309,.T.);
#1309 = CIRCLE('',#1310,1.100002286005);
#1310 = AXIS2_PLACEMENT_3D('',#1311,#1312,#1313);
#1311 = CARTESIAN_POINT('',(93.900187960376,61.250121920244,0.));
#1312 = DIRECTION('',(0.,0.,1.));
#1313 = DIRECTION('',(-1.,-1.110223024625E-16,0.));
#1314 = CYLINDRICAL_SURFACE('',#1315,1.100002286005);
#1315 = AXIS2_PLACEMENT_3D('',#1316,#1317,#1318);
#1316 = CARTESIAN_POINT('',(93.900187960376,61.250121920244,0.));
#1317 = DIRECTION('',(-0.,-0.,-1.));
#1318 = DIRECTION('',(-1.,-1.110223024625E-16,0.));
#1319 = ADVANCED_FACE('',(#1320),#1356,.F.);
#1320 = FACE_BOUND('',#1321,.T.);
#1321 = EDGE_LOOP('',(#1322,#1332,#1341,#1349));
#1322 = ORIENTED_EDGE('',*,*,#1323,.T.);
#1323 = EDGE_CURVE('',#1324,#1326,#1328,.T.);
#1324 = VERTEX_POINT('',#1325);
#1325 = CARTESIAN_POINT('',(95.000190246381,34.750068580137,0.));
#1326 = VERTEX_POINT('',#1327);
#1327 = CARTESIAN_POINT('',(95.000190246381,34.750068580137,
    1.600028244856));
#1328 = LINE('',#1329,#1330);
#1329 = CARTESIAN_POINT('',(95.000190246381,34.750068580137,0.));
#1330 = VECTOR('',#1331,1.);
#1331 = DIRECTION('',(0.,0.,1.));
#1332 = ORIENTED_EDGE('',*,*,#1333,.T.);
#1333 = EDGE_CURVE('',#1326,#1334,#1336,.T.);
#1334 = VERTEX_POINT('',#1335);
#1335 = CARTESIAN_POINT('',(92.800185674371,34.750068580137,
    1.600028244856));
#1336 = CIRCLE('',#1337,1.100002286005);
#1337 = AXIS2_PLACEMENT_3D('',#1338,#1339,#1340);
#1338 = CARTESIAN_POINT('',(93.900187960376,34.750068580137,
    1.600028244856));
#1339 = DIRECTION('',(0.,0.,1.));
#1340 = DIRECTION('',(1.,1.110223024625E-16,-0.));
#1341 = ORIENTED_EDGE('',*,*,#1342,.F.);
#1342 = EDGE_CURVE('',#1343,#1334,#1345,.T.);
#1343 = VERTEX_POINT('',#1344);
#1344 = CARTESIAN_POINT('',(92.800185674371,34.750068580137,0.));
#1345 = LINE('',#1346,#1347);
#1346 = CARTESIAN_POINT('',(92.800185674371,34.750068580137,0.));
#1347 = VECTOR('',#1348,1.);
#1348 = DIRECTION('',(0.,0.,1.));
#1349 = ORIENTED_EDGE('',*,*,#1350,.F.);
#1350 = EDGE_CURVE('',#1324,#1343,#1351,.T.);
#1351 = CIRCLE('',#1352,1.100002286005);
#1352 = AXIS2_PLACEMENT_3D('',#1353,#1354,#1355);
#1353 = CARTESIAN_POINT('',(93.900187960376,34.750068580137,0.));
#1354 = DIRECTION('',(0.,0.,1.));
#1355 = DIRECTION('',(1.,1.110223024625E-16,-0.));
#1356 = CYLINDRICAL_SURFACE('',#1357,1.100002286005);
#1357 = AXIS2_PLACEMENT_3D('',#1358,#1359,#1360);
#1358 = CARTESIAN_POINT('',(93.900187960376,34.750068580137,0.));
#1359 = DIRECTION('',(-0.,-0.,-1.));
#1360 = DIRECTION('',(1.,1.110223024625E-16,-0.));
#1361 = ADVANCED_FACE('',(#1362),#1380,.F.);
#1362 = FACE_BOUND('',#1363,.T.);
#1363 = EDGE_LOOP('',(#1364,#1365,#1372,#1373));
#1364 = ORIENTED_EDGE('',*,*,#1342,.T.);
#1365 = ORIENTED_EDGE('',*,*,#1366,.T.);
#1366 = EDGE_CURVE('',#1334,#1326,#1367,.T.);
#1367 = CIRCLE('',#1368,1.100002286005);
#1368 = AXIS2_PLACEMENT_3D('',#1369,#1370,#1371);
#1369 = CARTESIAN_POINT('',(93.900187960376,34.750068580137,
    1.600028244856));
#1370 = DIRECTION('',(0.,0.,1.));
#1371 = DIRECTION('',(-1.,-1.110223024625E-16,0.));
#1372 = ORIENTED_EDGE('',*,*,#1323,.F.);
#1373 = ORIENTED_EDGE('',*,*,#1374,.F.);
#1374 = EDGE_CURVE('',#1343,#1324,#1375,.T.);
#1375 = CIRCLE('',#1376,1.100002286005);
#1376 = AXIS2_PLACEMENT_3D('',#1377,#1378,#1379);
#1377 = CARTESIAN_POINT('',(93.900187960376,34.750068580137,0.));
#1378 = DIRECTION('',(0.,0.,1.));
#1379 = DIRECTION('',(-1.,-1.110223024625E-16,0.));
#1380 = CYLINDRICAL_SURFACE('',#1381,1.100002286005);
#1381 = AXIS2_PLACEMENT_3D('',#1382,#1383,#1384);
#1382 = CARTESIAN_POINT('',(93.900187960376,34.750068580137,0.));
#1383 = DIRECTION('',(-0.,-0.,-1.));
#1384 = DIRECTION('',(-1.,-1.110223024625E-16,0.));
#1385 = ADVANCED_FACE('',(#1386,#1404,#1408,#1412,#1416,#1420,#1424,
    #1428,#1432,#1436,#1440,#1444,#1448),#1452,.T.);
#1386 = FACE_BOUND('',#1387,.T.);
#1387 = EDGE_LOOP('',(#1388,#1389,#1390,#1391,#1392,#1393,#1394,#1395,
    #1396,#1397,#1398,#1399,#1400,#1401,#1402,#1403));
#1388 = ORIENTED_EDGE('',*,*,#120,.T.);
#1389 = ORIENTED_EDGE('',*,*,#152,.T.);
#1390 = ORIENTED_EDGE('',*,*,#183,.T.);
#1391 = ORIENTED_EDGE('',*,*,#214,.T.);
#1392 = ORIENTED_EDGE('',*,*,#246,.T.);
#1393 = ORIENTED_EDGE('',*,*,#278,.T.);
#1394 = ORIENTED_EDGE('',*,*,#309,.T.);
#1395 = ORIENTED_EDGE('',*,*,#340,.T.);
#1396 = ORIENTED_EDGE('',*,*,#372,.T.);
#1397 = ORIENTED_EDGE('',*,*,#404,.T.);
#1398 = ORIENTED_EDGE('',*,*,#435,.T.);
#1399 = ORIENTED_EDGE('',*,*,#466,.T.);
#1400 = ORIENTED_EDGE('',*,*,#498,.T.);
#1401 = ORIENTED_EDGE('',*,*,#530,.T.);
#1402 = ORIENTED_EDGE('',*,*,#561,.T.);
#1403 = ORIENTED_EDGE('',*,*,#583,.T.);
#1404 = FACE_BOUND('',#1405,.T.);
#1405 = EDGE_LOOP('',(#1406,#1407));
#1406 = ORIENTED_EDGE('',*,*,#624,.T.);
#1407 = ORIENTED_EDGE('',*,*,#648,.T.);
#1408 = FACE_BOUND('',#1409,.T.);
#1409 = EDGE_LOOP('',(#1410,#1411));
#1410 = ORIENTED_EDGE('',*,*,#690,.T.);
#1411 = ORIENTED_EDGE('',*,*,#714,.T.);
#1412 = FACE_BOUND('',#1413,.T.);
#1413 = EDGE_LOOP('',(#1414,#1415));
#1414 = ORIENTED_EDGE('',*,*,#756,.T.);
#1415 = ORIENTED_EDGE('',*,*,#780,.T.);
#1416 = FACE_BOUND('',#1417,.T.);
#1417 = EDGE_LOOP('',(#1418,#1419));
#1418 = ORIENTED_EDGE('',*,*,#822,.T.);
#1419 = ORIENTED_EDGE('',*,*,#846,.T.);
#1420 = FACE_BOUND('',#1421,.T.);
#1421 = EDGE_LOOP('',(#1422,#1423));
#1422 = ORIENTED_EDGE('',*,*,#888,.T.);
#1423 = ORIENTED_EDGE('',*,*,#912,.T.);
#1424 = FACE_BOUND('',#1425,.T.);
#1425 = EDGE_LOOP('',(#1426,#1427));
#1426 = ORIENTED_EDGE('',*,*,#954,.T.);
#1427 = ORIENTED_EDGE('',*,*,#978,.T.);
#1428 = FACE_BOUND('',#1429,.T.);
#1429 = EDGE_LOOP('',(#1430,#1431));
#1430 = ORIENTED_EDGE('',*,*,#1020,.T.);
#1431 = ORIENTED_EDGE('',*,*,#1044,.T.);
#1432 = FACE_BOUND('',#1433,.T.);
#1433 = EDGE_LOOP('',(#1434,#1435));
#1434 = ORIENTED_EDGE('',*,*,#1086,.T.);
#1435 = ORIENTED_EDGE('',*,*,#1110,.T.);
#1436 = FACE_BOUND('',#1437,.T.);
#1437 = EDGE_LOOP('',(#1438,#1439));
#1438 = ORIENTED_EDGE('',*,*,#1152,.T.);
#1439 = ORIENTED_EDGE('',*,*,#1176,.T.);
#1440 = FACE_BOUND('',#1441,.T.);
#1441 = EDGE_LOOP('',(#1442,#1443));
#1442 = ORIENTED_EDGE('',*,*,#1218,.T.);
#1443 = ORIENTED_EDGE('',*,*,#1242,.T.);
#1444 = FACE_BOUND('',#1445,.T.);
#1445 = EDGE_LOOP('',(#1446,#1447));
#1446 = ORIENTED_EDGE('',*,*,#1284,.T.);
#1447 = ORIENTED_EDGE('',*,*,#1308,.T.);
#1448 = FACE_BOUND('',#1449,.T.);
#1449 = EDGE_LOOP('',(#1450,#1451));
#1450 = ORIENTED_EDGE('',*,*,#1350,.T.);
#1451 = ORIENTED_EDGE('',*,*,#1374,.T.);
#1452 = PLANE('',#1453);
#1453 = AXIS2_PLACEMENT_3D('',#1454,#1455,#1456);
#1454 = CARTESIAN_POINT('',(48.000096012192,48.000096012192,0.));
#1455 = DIRECTION('',(-0.,-0.,-1.));
#1456 = DIRECTION('',(-1.,0.,0.));
#1457 = ADVANCED_FACE('',(#1458,#1476,#1480,#1484,#1488,#1492,#1496,
    #1500,#1504,#1508,#1512,#1516,#1520),#1524,.F.);
#1458 = FACE_BOUND('',#1459,.F.);
#1459 = EDGE_LOOP('',(#1460,#1461,#1462,#1463,#1464,#1465,#1466,#1467,
    #1468,#1469,#1470,#1471,#1472,#1473,#1474,#1475));
#1460 = ORIENTED_EDGE('',*,*,#103,.T.);
#1461 = ORIENTED_EDGE('',*,*,#136,.T.);
#1462 = ORIENTED_EDGE('',*,*,#167,.T.);
#1463 = ORIENTED_EDGE('',*,*,#198,.T.);
#1464 = ORIENTED_EDGE('',*,*,#229,.T.);
#1465 = ORIENTED_EDGE('',*,*,#262,.T.);
#1466 = ORIENTED_EDGE('',*,*,#293,.T.);
#1467 = ORIENTED_EDGE('',*,*,#324,.T.);
#1468 = ORIENTED_EDGE('',*,*,#355,.T.);
#1469 = ORIENTED_EDGE('',*,*,#388,.T.);
#1470 = ORIENTED_EDGE('',*,*,#419,.T.);
#1471 = ORIENTED_EDGE('',*,*,#450,.T.);
#1472 = ORIENTED_EDGE('',*,*,#481,.T.);
#1473 = ORIENTED_EDGE('',*,*,#514,.T.);
#1474 = ORIENTED_EDGE('',*,*,#545,.T.);
#1475 = ORIENTED_EDGE('',*,*,#576,.T.);
#1476 = FACE_BOUND('',#1477,.F.);
#1477 = EDGE_LOOP('',(#1478,#1479));
#1478 = ORIENTED_EDGE('',*,*,#607,.T.);
#1479 = ORIENTED_EDGE('',*,*,#640,.T.);
#1480 = FACE_BOUND('',#1481,.F.);
#1481 = EDGE_LOOP('',(#1482,#1483));
#1482 = ORIENTED_EDGE('',*,*,#673,.T.);
#1483 = ORIENTED_EDGE('',*,*,#706,.T.);
#1484 = FACE_BOUND('',#1485,.F.);
#1485 = EDGE_LOOP('',(#1486,#1487));
#1486 = ORIENTED_EDGE('',*,*,#739,.T.);
#1487 = ORIENTED_EDGE('',*,*,#772,.T.);
#1488 = FACE_BOUND('',#1489,.F.);
#1489 = EDGE_LOOP('',(#1490,#1491));
#1490 = ORIENTED_EDGE('',*,*,#805,.T.);
#1491 = ORIENTED_EDGE('',*,*,#838,.T.);
#1492 = FACE_BOUND('',#1493,.F.);
#1493 = EDGE_LOOP('',(#1494,#1495));
#1494 = ORIENTED_EDGE('',*,*,#871,.T.);
#1495 = ORIENTED_EDGE('',*,*,#904,.T.);
#1496 = FACE_BOUND('',#1497,.F.);
#1497 = EDGE_LOOP('',(#1498,#1499));
#1498 = ORIENTED_EDGE('',*,*,#937,.T.);
#1499 = ORIENTED_EDGE('',*,*,#970,.T.);
#1500 = FACE_BOUND('',#1501,.F.);
#1501 = EDGE_LOOP('',(#1502,#1503));
#1502 = ORIENTED_EDGE('',*,*,#1003,.T.);
#1503 = ORIENTED_EDGE('',*,*,#1036,.T.);
#1504 = FACE_BOUND('',#1505,.F.);
#1505 = EDGE_LOOP('',(#1506,#1507));
#1506 = ORIENTED_EDGE('',*,*,#1069,.T.);
#1507 = ORIENTED_EDGE('',*,*,#1102,.T.);
#1508 = FACE_BOUND('',#1509,.F.);
#1509 = EDGE_LOOP('',(#1510,#1511));
#1510 = ORIENTED_EDGE('',*,*,#1135,.T.);
#1511 = ORIENTED_EDGE('',*,*,#1168,.T.);
#1512 = FACE_BOUND('',#1513,.F.);
#1513 = EDGE_LOOP('',(#1514,#1515));
#1514 = ORIENTED_EDGE('',*,*,#1201,.T.);
#1515 = ORIENTED_EDGE('',*,*,#1234,.T.);
#1516 = FACE_BOUND('',#1517,.F.);
#1517 = EDGE_LOOP('',(#1518,#1519));
#1518 = ORIENTED_EDGE('',*,*,#1267,.T.);
#1519 = ORIENTED_EDGE('',*,*,#1300,.T.);
#1520 = FACE_BOUND('',#1521,.F.);
#1521 = EDGE_LOOP('',(#1522,#1523));
#1522 = ORIENTED_EDGE('',*,*,#1333,.T.);
#1523 = ORIENTED_EDGE('',*,*,#1366,.T.);
#1524 = PLANE('',#1525);
#1525 = AXIS2_PLACEMENT_3D('',#1526,#1527,#1528);
#1526 = CARTESIAN_POINT('',(48.000096012192,48.000096012192,
    1.600028244856));
#1527 = DIRECTION('',(-0.,-0.,-1.));
#1528 = DIRECTION('',(-1.,0.,0.));
#1529 = ( GEOMETRIC_REPRESENTATION_CONTEXT(3) 
GLOBAL_UNCERTAINTY_ASSIGNED_CONTEXT((#1533)) 
GLOBAL_UNIT_ASSIGNED_CONTEXT((#1530,#1531,#1532)) REPRESENTATION_CONTEXT
('Context #1','3D Context with UNIT and UNCERTAINTY') );
#1530 = ( LENGTH_UNIT() NAMED_UNIT(*) SI_UNIT(.MILLI.,.METRE.) );
#1531 = ( NAMED_UNIT(*) PLANE_ANGLE_UNIT() SI_UNIT($,.RADIAN.) );
#1532 = ( NAMED_UNIT(*) SI_UNIT($,.STERADIAN.) SOLID_ANGLE_UNIT() );
#1533 = UNCERTAINTY_MEASURE_WITH_UNIT(LENGTH_MEASURE(1.E-07),#1530,
  'distance_accuracy_value','confusion accuracy');
#1534 = CONTEXT_DEPENDENT_SHAPE_REPRESENTATION(#1535,#1537);
#1535 = ( REPRESENTATION_RELATIONSHIP('','',#86,#10) 
REPRESENTATION_RELATIONSHIP_WITH_TRANSFORMATION(#1536) 
SHAPE_REPRESENTATION_RELATIONSHIP() );
#1536 = ITEM_DEFINED_TRANSFORMATION('','',#11,#23);
#1537 = PRODUCT_DEFINITION_SHAPE('Placement','Placement of an item',
  #1538);
#1538 = NEXT_ASSEMBLY_USAGE_OCCURRENCE('3','=>[0:1:1:4]','',#5,#81,$);
#1539 = PRODUCT_RELATED_PRODUCT_CATEGORY('part',$,(#83));
#1540 = SHAPE_DEFINITION_REPRESENTATION(#1541,#1547);
#1541 = PRODUCT_DEFINITION_SHAPE('','',#1542);
#1542 = PRODUCT_DEFINITION('design','',#1543,#1546);
#1543 = PRODUCT_DEFINITION_FORMATION('','',#1544);
#1544 = PRODUCT('biNZ-Top FPC Stiffener','biNZ-Top FPC Stiffener','',(
    #1545));
#1545 = PRODUCT_CONTEXT('',#2,'mechanical');
#1546 = PRODUCT_DEFINITION_CONTEXT('part definition',#2,'design');
#1547 = SHAPE_REPRESENTATION('',(#11),#1548);
#1548 = ( GEOMETRIC_REPRESENTATION_CONTEXT(3) 
GLOBAL_UNCERTAINTY_ASSIGNED_CONTEXT((#1552)) 
GLOBAL_UNIT_ASSIGNED_CONTEXT((#1549,#1550,#1551)) REPRESENTATION_CONTEXT
('Context #1','3D Context with UNIT and UNCERTAINTY') );
#1549 = ( LENGTH_UNIT() NAMED_UNIT(*) SI_UNIT(.MILLI.,.METRE.) );
#1550 = ( NAMED_UNIT(*) PLANE_ANGLE_UNIT() SI_UNIT($,.RADIAN.) );
#1551 = ( NAMED_UNIT(*) SI_UNIT($,.STERADIAN.) SOLID_ANGLE_UNIT() );
#1552 = UNCERTAINTY_MEASURE_WITH_UNIT(LENGTH_MEASURE(1.E-07),#1549,
  'distance_accuracy_value','confusion accuracy');
#1553 = CONTEXT_DEPENDENT_SHAPE_REPRESENTATION(#1554,#1556);
#1554 = ( REPRESENTATION_RELATIONSHIP('','',#1547,#10) 
REPRESENTATION_RELATIONSHIP_WITH_TRANSFORMATION(#1555) 
SHAPE_REPRESENTATION_RELATIONSHIP() );
#1555 = ITEM_DEFINED_TRANSFORMATION('','',#11,#27);
#1556 = PRODUCT_DEFINITION_SHAPE('Placement','Placement of an item',
  #1557);
#1557 = NEXT_ASSEMBLY_USAGE_OCCURRENCE('4','=>[0:1:1:5]','',#5,#1542,$);
#1558 = PRODUCT_RELATED_PRODUCT_CATEGORY('part',$,(#1544));
#1559 = SHAPE_DEFINITION_REPRESENTATION(#1560,#1566);
#1560 = PRODUCT_DEFINITION_SHAPE('','',#1561);
#1561 = PRODUCT_DEFINITION('design','',#1562,#1565);
#1562 = PRODUCT_DEFINITION_FORMATION('','',#1563);
#1563 = PRODUCT('biNZ-Bot FPC Stiffener','biNZ-Bot FPC Stiffener','',(
    #1564));
#1564 = PRODUCT_CONTEXT('',#2,'mechanical');
#1565 = PRODUCT_DEFINITION_CONTEXT('part definition',#2,'design');
#1566 = SHAPE_REPRESENTATION('',(#11),#1567);
#1567 = ( GEOMETRIC_REPRESENTATION_CONTEXT(3) 
GLOBAL_UNCERTAINTY_ASSIGNED_CONTEXT((#1571)) 
GLOBAL_UNIT_ASSIGNED_CONTEXT((#1568,#1569,#1570)) REPRESENTATION_CONTEXT
('Context #1','3D Context with UNIT and UNCERTAINTY') );
#1568 = ( LENGTH_UNIT() NAMED_UNIT(*) SI_UNIT(.MILLI.,.METRE.) );
#1569 = ( NAMED_UNIT(*) PLANE_ANGLE_UNIT() SI_UNIT($,.RADIAN.) );
#1570 = ( NAMED_UNIT(*) SI_UNIT($,.STERADIAN.) SOLID_ANGLE_UNIT() );
#1571 = UNCERTAINTY_MEASURE_WITH_UNIT(LENGTH_MEASURE(1.E-07),#1568,
  'distance_accuracy_value','confusion accuracy');
#1572 = CONTEXT_DEPENDENT_SHAPE_REPRESENTATION(#1573,#1575);
#1573 = ( REPRESENTATION_RELATIONSHIP('','',#1566,#10) 
REPRESENTATION_RELATIONSHIP_WITH_TRANSFORMATION(#1574) 
SHAPE_REPRESENTATION_RELATIONSHIP() );
#1574 = ITEM_DEFINED_TRANSFORMATION('','',#11,#31);
#1575 = PRODUCT_DEFINITION_SHAPE('Placement','Placement of an item',
  #1576);
#1576 = NEXT_ASSEMBLY_USAGE_OCCURRENCE('5','=>[0:1:1:6]','',#5,#1561,$);
#1577 = PRODUCT_RELATED_PRODUCT_CATEGORY('part',$,(#1563));
#1578 = MECHANICAL_DESIGN_GEOMETRIC_PRESENTATION_REPRESENTATION('',(
    #1579,#1589,#1597,#1604,#1611,#1618,#1625,#1632,#1639,#1646,#1653,
    #1660,#1667,#1674,#1681,#1688,#1695,#1702,#1709,#1716,#1723,#1730,
    #1737,#1744,#1751,#1758,#1765,#1772,#1779,#1786,#1793,#1800,#1807,
    #1814,#1821,#1828,#1835,#1842,#1849,#1856,#1863),#1529);
#1579 = STYLED_ITEM('color',(#1580),#87);
#1580 = PRESENTATION_STYLE_ASSIGNMENT((#1581,#1587));
#1581 = SURFACE_STYLE_USAGE(.BOTH.,#1582);
#1582 = SURFACE_SIDE_STYLE('',(#1583));
#1583 = SURFACE_STYLE_FILL_AREA(#1584);
#1584 = FILL_AREA_STYLE('',(#1585));
#1585 = FILL_AREA_STYLE_COLOUR('',#1586);
#1586 = COLOUR_RGB('',0.,0.377508427907,0.578582128266);
#1587 = CURVE_STYLE('',#1588,POSITIVE_LENGTH_MEASURE(0.1),#1586);
#1588 = DRAUGHTING_PRE_DEFINED_CURVE_FONT('continuous');
#1589 = OVER_RIDING_STYLED_ITEM('overriding color',(#1590),#89,#1579);
#1590 = PRESENTATION_STYLE_ASSIGNMENT((#1591));
#1591 = SURFACE_STYLE_USAGE(.BOTH.,#1592);
#1592 = SURFACE_SIDE_STYLE('',(#1593));
#1593 = SURFACE_STYLE_FILL_AREA(#1594);
#1594 = FILL_AREA_STYLE('',(#1595));
#1595 = FILL_AREA_STYLE_COLOUR('',#1596);
#1596 = COLOUR_RGB('',0.937179583391,0.9357410338,0.649182888601);
#1597 = OVER_RIDING_STYLED_ITEM('overriding color',(#1598),#131,#1579);
#1598 = PRESENTATION_STYLE_ASSIGNMENT((#1599));
#1599 = SURFACE_STYLE_USAGE(.BOTH.,#1600);
#1600 = SURFACE_SIDE_STYLE('',(#1601));
#1601 = SURFACE_STYLE_FILL_AREA(#1602);
#1602 = FILL_AREA_STYLE('',(#1603));
#1603 = FILL_AREA_STYLE_COLOUR('',#1596);
#1604 = OVER_RIDING_STYLED_ITEM('overriding color',(#1605),#162,#1579);
#1605 = PRESENTATION_STYLE_ASSIGNMENT((#1606));
#1606 = SURFACE_STYLE_USAGE(.BOTH.,#1607);
#1607 = SURFACE_SIDE_STYLE('',(#1608));
#1608 = SURFACE_STYLE_FILL_AREA(#1609);
#1609 = FILL_AREA_STYLE('',(#1610));
#1610 = FILL_AREA_STYLE_COLOUR('',#1596);
#1611 = OVER_RIDING_STYLED_ITEM('overriding color',(#1612),#193,#1579);
#1612 = PRESENTATION_STYLE_ASSIGNMENT((#1613));
#1613 = SURFACE_STYLE_USAGE(.BOTH.,#1614);
#1614 = SURFACE_SIDE_STYLE('',(#1615));
#1615 = SURFACE_STYLE_FILL_AREA(#1616);
#1616 = FILL_AREA_STYLE('',(#1617));
#1617 = FILL_AREA_STYLE_COLOUR('',#1596);
#1618 = OVER_RIDING_STYLED_ITEM('overriding color',(#1619),#224,#1579);
#1619 = PRESENTATION_STYLE_ASSIGNMENT((#1620));
#1620 = SURFACE_STYLE_USAGE(.BOTH.,#1621);
#1621 = SURFACE_SIDE_STYLE('',(#1622));
#1622 = SURFACE_STYLE_FILL_AREA(#1623);
#1623 = FILL_AREA_STYLE('',(#1624));
#1624 = FILL_AREA_STYLE_COLOUR('',#1596);
#1625 = OVER_RIDING_STYLED_ITEM('overriding color',(#1626),#257,#1579);
#1626 = PRESENTATION_STYLE_ASSIGNMENT((#1627));
#1627 = SURFACE_STYLE_USAGE(.BOTH.,#1628);
#1628 = SURFACE_SIDE_STYLE('',(#1629));
#1629 = SURFACE_STYLE_FILL_AREA(#1630);
#1630 = FILL_AREA_STYLE('',(#1631));
#1631 = FILL_AREA_STYLE_COLOUR('',#1596);
#1632 = OVER_RIDING_STYLED_ITEM('overriding color',(#1633),#288,#1579);
#1633 = PRESENTATION_STYLE_ASSIGNMENT((#1634));
#1634 = SURFACE_STYLE_USAGE(.BOTH.,#1635);
#1635 = SURFACE_SIDE_STYLE('',(#1636));
#1636 = SURFACE_STYLE_FILL_AREA(#1637);
#1637 = FILL_AREA_STYLE('',(#1638));
#1638 = FILL_AREA_STYLE_COLOUR('',#1596);
#1639 = OVER_RIDING_STYLED_ITEM('overriding color',(#1640),#319,#1579);
#1640 = PRESENTATION_STYLE_ASSIGNMENT((#1641));
#1641 = SURFACE_STYLE_USAGE(.BOTH.,#1642);
#1642 = SURFACE_SIDE_STYLE('',(#1643));
#1643 = SURFACE_STYLE_FILL_AREA(#1644);
#1644 = FILL_AREA_STYLE('',(#1645));
#1645 = FILL_AREA_STYLE_COLOUR('',#1596);
#1646 = OVER_RIDING_STYLED_ITEM('overriding color',(#1647),#350,#1579);
#1647 = PRESENTATION_STYLE_ASSIGNMENT((#1648));
#1648 = SURFACE_STYLE_USAGE(.BOTH.,#1649);
#1649 = SURFACE_SIDE_STYLE('',(#1650));
#1650 = SURFACE_STYLE_FILL_AREA(#1651);
#1651 = FILL_AREA_STYLE('',(#1652));
#1652 = FILL_AREA_STYLE_COLOUR('',#1596);
#1653 = OVER_RIDING_STYLED_ITEM('overriding color',(#1654),#383,#1579);
#1654 = PRESENTATION_STYLE_ASSIGNMENT((#1655));
#1655 = SURFACE_STYLE_USAGE(.BOTH.,#1656);
#1656 = SURFACE_SIDE_STYLE('',(#1657));
#1657 = SURFACE_STYLE_FILL_AREA(#1658);
#1658 = FILL_AREA_STYLE('',(#1659));
#1659 = FILL_AREA_STYLE_COLOUR('',#1596);
#1660 = OVER_RIDING_STYLED_ITEM('overriding color',(#1661),#414,#1579);
#1661 = PRESENTATION_STYLE_ASSIGNMENT((#1662));
#1662 = SURFACE_STYLE_USAGE(.BOTH.,#1663);
#1663 = SURFACE_SIDE_STYLE('',(#1664));
#1664 = SURFACE_STYLE_FILL_AREA(#1665);
#1665 = FILL_AREA_STYLE('',(#1666));
#1666 = FILL_AREA_STYLE_COLOUR('',#1596);
#1667 = OVER_RIDING_STYLED_ITEM('overriding color',(#1668),#445,#1579);
#1668 = PRESENTATION_STYLE_ASSIGNMENT((#1669));
#1669 = SURFACE_STYLE_USAGE(.BOTH.,#1670);
#1670 = SURFACE_SIDE_STYLE('',(#1671));
#1671 = SURFACE_STYLE_FILL_AREA(#1672);
#1672 = FILL_AREA_STYLE('',(#1673));
#1673 = FILL_AREA_STYLE_COLOUR('',#1596);
#1674 = OVER_RIDING_STYLED_ITEM('overriding color',(#1675),#476,#1579);
#1675 = PRESENTATION_STYLE_ASSIGNMENT((#1676));
#1676 = SURFACE_STYLE_USAGE(.BOTH.,#1677);
#1677 = SURFACE_SIDE_STYLE('',(#1678));
#1678 = SURFACE_STYLE_FILL_AREA(#1679);
#1679 = FILL_AREA_STYLE('',(#1680));
#1680 = FILL_AREA_STYLE_COLOUR('',#1596);
#1681 = OVER_RIDING_STYLED_ITEM('overriding color',(#1682),#509,#1579);
#1682 = PRESENTATION_STYLE_ASSIGNMENT((#1683));
#1683 = SURFACE_STYLE_USAGE(.BOTH.,#1684);
#1684 = SURFACE_SIDE_STYLE('',(#1685));
#1685 = SURFACE_STYLE_FILL_AREA(#1686);
#1686 = FILL_AREA_STYLE('',(#1687));
#1687 = FILL_AREA_STYLE_COLOUR('',#1596);
#1688 = OVER_RIDING_STYLED_ITEM('overriding color',(#1689),#540,#1579);
#1689 = PRESENTATION_STYLE_ASSIGNMENT((#1690));
#1690 = SURFACE_STYLE_USAGE(.BOTH.,#1691);
#1691 = SURFACE_SIDE_STYLE('',(#1692));
#1692 = SURFACE_STYLE_FILL_AREA(#1693);
#1693 = FILL_AREA_STYLE('',(#1694));
#1694 = FILL_AREA_STYLE_COLOUR('',#1596);
#1695 = OVER_RIDING_STYLED_ITEM('overriding color',(#1696),#571,#1579);
#1696 = PRESENTATION_STYLE_ASSIGNMENT((#1697));
#1697 = SURFACE_STYLE_USAGE(.BOTH.,#1698);
#1698 = SURFACE_SIDE_STYLE('',(#1699));
#1699 = SURFACE_STYLE_FILL_AREA(#1700);
#1700 = FILL_AREA_STYLE('',(#1701));
#1701 = FILL_AREA_STYLE_COLOUR('',#1596);
#1702 = OVER_RIDING_STYLED_ITEM('overriding color',(#1703),#593,#1579);
#1703 = PRESENTATION_STYLE_ASSIGNMENT((#1704));
#1704 = SURFACE_STYLE_USAGE(.BOTH.,#1705);
#1705 = SURFACE_SIDE_STYLE('',(#1706));
#1706 = SURFACE_STYLE_FILL_AREA(#1707);
#1707 = FILL_AREA_STYLE('',(#1708));
#1708 = FILL_AREA_STYLE_COLOUR('',#1596);
#1709 = OVER_RIDING_STYLED_ITEM('overriding color',(#1710),#635,#1579);
#1710 = PRESENTATION_STYLE_ASSIGNMENT((#1711));
#1711 = SURFACE_STYLE_USAGE(.BOTH.,#1712);
#1712 = SURFACE_SIDE_STYLE('',(#1713));
#1713 = SURFACE_STYLE_FILL_AREA(#1714);
#1714 = FILL_AREA_STYLE('',(#1715));
#1715 = FILL_AREA_STYLE_COLOUR('',#1596);
#1716 = OVER_RIDING_STYLED_ITEM('overriding color',(#1717),#659,#1579);
#1717 = PRESENTATION_STYLE_ASSIGNMENT((#1718));
#1718 = SURFACE_STYLE_USAGE(.BOTH.,#1719);
#1719 = SURFACE_SIDE_STYLE('',(#1720));
#1720 = SURFACE_STYLE_FILL_AREA(#1721);
#1721 = FILL_AREA_STYLE('',(#1722));
#1722 = FILL_AREA_STYLE_COLOUR('',#1596);
#1723 = OVER_RIDING_STYLED_ITEM('overriding color',(#1724),#701,#1579);
#1724 = PRESENTATION_STYLE_ASSIGNMENT((#1725));
#1725 = SURFACE_STYLE_USAGE(.BOTH.,#1726);
#1726 = SURFACE_SIDE_STYLE('',(#1727));
#1727 = SURFACE_STYLE_FILL_AREA(#1728);
#1728 = FILL_AREA_STYLE('',(#1729));
#1729 = FILL_AREA_STYLE_COLOUR('',#1596);
#1730 = OVER_RIDING_STYLED_ITEM('overriding color',(#1731),#725,#1579);
#1731 = PRESENTATION_STYLE_ASSIGNMENT((#1732));
#1732 = SURFACE_STYLE_USAGE(.BOTH.,#1733);
#1733 = SURFACE_SIDE_STYLE('',(#1734));
#1734 = SURFACE_STYLE_FILL_AREA(#1735);
#1735 = FILL_AREA_STYLE('',(#1736));
#1736 = FILL_AREA_STYLE_COLOUR('',#1596);
#1737 = OVER_RIDING_STYLED_ITEM('overriding color',(#1738),#767,#1579);
#1738 = PRESENTATION_STYLE_ASSIGNMENT((#1739));
#1739 = SURFACE_STYLE_USAGE(.BOTH.,#1740);
#1740 = SURFACE_SIDE_STYLE('',(#1741));
#1741 = SURFACE_STYLE_FILL_AREA(#1742);
#1742 = FILL_AREA_STYLE('',(#1743));
#1743 = FILL_AREA_STYLE_COLOUR('',#1596);
#1744 = OVER_RIDING_STYLED_ITEM('overriding color',(#1745),#791,#1579);
#1745 = PRESENTATION_STYLE_ASSIGNMENT((#1746));
#1746 = SURFACE_STYLE_USAGE(.BOTH.,#1747);
#1747 = SURFACE_SIDE_STYLE('',(#1748));
#1748 = SURFACE_STYLE_FILL_AREA(#1749);
#1749 = FILL_AREA_STYLE('',(#1750));
#1750 = FILL_AREA_STYLE_COLOUR('',#1596);
#1751 = OVER_RIDING_STYLED_ITEM('overriding color',(#1752),#833,#1579);
#1752 = PRESENTATION_STYLE_ASSIGNMENT((#1753));
#1753 = SURFACE_STYLE_USAGE(.BOTH.,#1754);
#1754 = SURFACE_SIDE_STYLE('',(#1755));
#1755 = SURFACE_STYLE_FILL_AREA(#1756);
#1756 = FILL_AREA_STYLE('',(#1757));
#1757 = FILL_AREA_STYLE_COLOUR('',#1596);
#1758 = OVER_RIDING_STYLED_ITEM('overriding color',(#1759),#857,#1579);
#1759 = PRESENTATION_STYLE_ASSIGNMENT((#1760));
#1760 = SURFACE_STYLE_USAGE(.BOTH.,#1761);
#1761 = SURFACE_SIDE_STYLE('',(#1762));
#1762 = SURFACE_STYLE_FILL_AREA(#1763);
#1763 = FILL_AREA_STYLE('',(#1764));
#1764 = FILL_AREA_STYLE_COLOUR('',#1596);
#1765 = OVER_RIDING_STYLED_ITEM('overriding color',(#1766),#899,#1579);
#1766 = PRESENTATION_STYLE_ASSIGNMENT((#1767));
#1767 = SURFACE_STYLE_USAGE(.BOTH.,#1768);
#1768 = SURFACE_SIDE_STYLE('',(#1769));
#1769 = SURFACE_STYLE_FILL_AREA(#1770);
#1770 = FILL_AREA_STYLE('',(#1771));
#1771 = FILL_AREA_STYLE_COLOUR('',#1596);
#1772 = OVER_RIDING_STYLED_ITEM('overriding color',(#1773),#923,#1579);
#1773 = PRESENTATION_STYLE_ASSIGNMENT((#1774));
#1774 = SURFACE_STYLE_USAGE(.BOTH.,#1775);
#1775 = SURFACE_SIDE_STYLE('',(#1776));
#1776 = SURFACE_STYLE_FILL_AREA(#1777);
#1777 = FILL_AREA_STYLE('',(#1778));
#1778 = FILL_AREA_STYLE_COLOUR('',#1596);
#1779 = OVER_RIDING_STYLED_ITEM('overriding color',(#1780),#965,#1579);
#1780 = PRESENTATION_STYLE_ASSIGNMENT((#1781));
#1781 = SURFACE_STYLE_USAGE(.BOTH.,#1782);
#1782 = SURFACE_SIDE_STYLE('',(#1783));
#1783 = SURFACE_STYLE_FILL_AREA(#1784);
#1784 = FILL_AREA_STYLE('',(#1785));
#1785 = FILL_AREA_STYLE_COLOUR('',#1596);
#1786 = OVER_RIDING_STYLED_ITEM('overriding color',(#1787),#989,#1579);
#1787 = PRESENTATION_STYLE_ASSIGNMENT((#1788));
#1788 = SURFACE_STYLE_USAGE(.BOTH.,#1789);
#1789 = SURFACE_SIDE_STYLE('',(#1790));
#1790 = SURFACE_STYLE_FILL_AREA(#1791);
#1791 = FILL_AREA_STYLE('',(#1792));
#1792 = FILL_AREA_STYLE_COLOUR('',#1596);
#1793 = OVER_RIDING_STYLED_ITEM('overriding color',(#1794),#1031,#1579);
#1794 = PRESENTATION_STYLE_ASSIGNMENT((#1795));
#1795 = SURFACE_STYLE_USAGE(.BOTH.,#1796);
#1796 = SURFACE_SIDE_STYLE('',(#1797));
#1797 = SURFACE_STYLE_FILL_AREA(#1798);
#1798 = FILL_AREA_STYLE('',(#1799));
#1799 = FILL_AREA_STYLE_COLOUR('',#1596);
#1800 = OVER_RIDING_STYLED_ITEM('overriding color',(#1801),#1055,#1579);
#1801 = PRESENTATION_STYLE_ASSIGNMENT((#1802));
#1802 = SURFACE_STYLE_USAGE(.BOTH.,#1803);
#1803 = SURFACE_SIDE_STYLE('',(#1804));
#1804 = SURFACE_STYLE_FILL_AREA(#1805);
#1805 = FILL_AREA_STYLE('',(#1806));
#1806 = FILL_AREA_STYLE_COLOUR('',#1596);
#1807 = OVER_RIDING_STYLED_ITEM('overriding color',(#1808),#1097,#1579);
#1808 = PRESENTATION_STYLE_ASSIGNMENT((#1809));
#1809 = SURFACE_STYLE_USAGE(.BOTH.,#1810);
#1810 = SURFACE_SIDE_STYLE('',(#1811));
#1811 = SURFACE_STYLE_FILL_AREA(#1812);
#1812 = FILL_AREA_STYLE('',(#1813));
#1813 = FILL_AREA_STYLE_COLOUR('',#1596);
#1814 = OVER_RIDING_STYLED_ITEM('overriding color',(#1815),#1121,#1579);
#1815 = PRESENTATION_STYLE_ASSIGNMENT((#1816));
#1816 = SURFACE_STYLE_USAGE(.BOTH.,#1817);
#1817 = SURFACE_SIDE_STYLE('',(#1818));
#1818 = SURFACE_STYLE_FILL_AREA(#1819);
#1819 = FILL_AREA_STYLE('',(#1820));
#1820 = FILL_AREA_STYLE_COLOUR('',#1596);
#1821 = OVER_RIDING_STYLED_ITEM('overriding color',(#1822),#1163,#1579);
#1822 = PRESENTATION_STYLE_ASSIGNMENT((#1823));
#1823 = SURFACE_STYLE_USAGE(.BOTH.,#1824);
#1824 = SURFACE_SIDE_STYLE('',(#1825));
#1825 = SURFACE_STYLE_FILL_AREA(#1826);
#1826 = FILL_AREA_STYLE('',(#1827));
#1827 = FILL_AREA_STYLE_COLOUR('',#1596);
#1828 = OVER_RIDING_STYLED_ITEM('overriding color',(#1829),#1187,#1579);
#1829 = PRESENTATION_STYLE_ASSIGNMENT((#1830));
#1830 = SURFACE_STYLE_USAGE(.BOTH.,#1831);
#1831 = SURFACE_SIDE_STYLE('',(#1832));
#1832 = SURFACE_STYLE_FILL_AREA(#1833);
#1833 = FILL_AREA_STYLE('',(#1834));
#1834 = FILL_AREA_STYLE_COLOUR('',#1596);
#1835 = OVER_RIDING_STYLED_ITEM('overriding color',(#1836),#1229,#1579);
#1836 = PRESENTATION_STYLE_ASSIGNMENT((#1837));
#1837 = SURFACE_STYLE_USAGE(.BOTH.,#1838);
#1838 = SURFACE_SIDE_STYLE('',(#1839));
#1839 = SURFACE_STYLE_FILL_AREA(#1840);
#1840 = FILL_AREA_STYLE('',(#1841));
#1841 = FILL_AREA_STYLE_COLOUR('',#1596);
#1842 = OVER_RIDING_STYLED_ITEM('overriding color',(#1843),#1253,#1579);
#1843 = PRESENTATION_STYLE_ASSIGNMENT((#1844));
#1844 = SURFACE_STYLE_USAGE(.BOTH.,#1845);
#1845 = SURFACE_SIDE_STYLE('',(#1846));
#1846 = SURFACE_STYLE_FILL_AREA(#1847);
#1847 = FILL_AREA_STYLE('',(#1848));
#1848 = FILL_AREA_STYLE_COLOUR('',#1596);
#1849 = OVER_RIDING_STYLED_ITEM('overriding color',(#1850),#1295,#1579);
#1850 = PRESENTATION_STYLE_ASSIGNMENT((#1851));
#1851 = SURFACE_STYLE_USAGE(.BOTH.,#1852);
#1852 = SURFACE_SIDE_STYLE('',(#1853));
#1853 = SURFACE_STYLE_FILL_AREA(#1854);
#1854 = FILL_AREA_STYLE('',(#1855));
#1855 = FILL_AREA_STYLE_COLOUR('',#1596);
#1856 = OVER_RIDING_STYLED_ITEM('overriding color',(#1857),#1319,#1579);
#1857 = PRESENTATION_STYLE_ASSIGNMENT((#1858));
#1858 = SURFACE_STYLE_USAGE(.BOTH.,#1859);
#1859 = SURFACE_SIDE_STYLE('',(#1860));
#1860 = SURFACE_STYLE_FILL_AREA(#1861);
#1861 = FILL_AREA_STYLE('',(#1862));
#1862 = FILL_AREA_STYLE_COLOUR('',#1596);
#1863 = OVER_RIDING_STYLED_ITEM('overriding color',(#1864),#1361,#1579);
#1864 = PRESENTATION_STYLE_ASSIGNMENT((#1865));
#1865 = SURFACE_STYLE_USAGE(.BOTH.,#1866);
#1866 = SURFACE_SIDE_STYLE('',(#1867));
#1867 = SURFACE_STYLE_FILL_AREA(#1868);
#1868 = FILL_AREA_STYLE('',(#1869));
#1869 = FILL_AREA_STYLE_COLOUR('',#1596);
ENDSEC;
END-ISO-10303-21;
