ISO-10303-21;
HEADER;
FILE_DESCRIPTION(('Designed by EasyEDA Pro'),'2;1');
FILE_NAME('Open CASCADE Shape Model','2025-04-06T16:41:28',('Author'),(
    'Open CASCADE'),'Open CASCADE STEP processor 7.8','Open CASCADE 7.8'
  ,'Unknown');
FILE_SCHEMA(('AUTOMOTIVE_DESIGN { 1 0 10303 214 1 1 1 1 }'));
ENDSEC;
DATA;
#1 = APPLICATION_PROTOCOL_DEFINITION('international standard',
  'automotive_design',2000,#2);
#2 = APPLICATION_CONTEXT(
  'core data for automotive mechanical design processes');
#3 = SHAPE_DEFINITION_REPRESENTATION(#4,#10);
#4 = PRODUCT_DEFINITION_SHAPE('','',#5);
#5 = PRODUCT_DEFINITION('design','',#6,#9);
#6 = PRODUCT_DEFINITION_FORMATION('','',#7);
#7 = PRODUCT('3Aft-PCBModel','3Aft-PCBModel','',(#8));
#8 = PRODUCT_CONTEXT('',#2,'mechanical');
#9 = PRODUCT_DEFINITION_CONTEXT('part definition',#2,'design');
#10 = SHAPE_REPRESENTATION('',(#11,#15,#19,#23,#27,#31),#35);
#11 = AXIS2_PLACEMENT_3D('',#12,#13,#14);
#12 = CARTESIAN_POINT('',(0.,0.,0.));
#13 = DIRECTION('',(0.,0.,1.));
#14 = DIRECTION('',(1.,0.,-0.));
#15 = AXIS2_PLACEMENT_3D('',#16,#17,#18);
#16 = CARTESIAN_POINT('',(0.,0.,1.610050800102));
#17 = DIRECTION('',(0.,0.,1.));
#18 = DIRECTION('',(1.,0.,-0.));
#19 = AXIS2_PLACEMENT_3D('',#20,#21,#22);
#20 = CARTESIAN_POINT('',(0.,0.,-1.E-02));
#21 = DIRECTION('',(0.,0.,1.));
#22 = DIRECTION('',(1.,0.,-0.));
#23 = AXIS2_PLACEMENT_3D('',#24,#25,#26);
#24 = CARTESIAN_POINT('',(0.,0.,0.));
#25 = DIRECTION('',(0.,0.,1.));
#26 = DIRECTION('',(1.,0.,-0.));
#27 = AXIS2_PLACEMENT_3D('',#28,#29,#30);
#28 = CARTESIAN_POINT('',(0.,0.,0.));
#29 = DIRECTION('',(0.,0.,1.));
#30 = DIRECTION('',(1.,0.,-0.));
#31 = AXIS2_PLACEMENT_3D('',#32,#33,#34);
#32 = CARTESIAN_POINT('',(0.,0.,0.));
#33 = DIRECTION('',(0.,0.,1.));
#34 = DIRECTION('',(1.,0.,-0.));
#35 = ( GEOMETRIC_REPRESENTATION_CONTEXT(3) 
GLOBAL_UNCERTAINTY_ASSIGNED_CONTEXT((#39)) GLOBAL_UNIT_ASSIGNED_CONTEXT(
(#36,#37,#38)) REPRESENTATION_CONTEXT('Context #1',
  '3D Context with UNIT and UNCERTAINTY') );
#36 = ( LENGTH_UNIT() NAMED_UNIT(*) SI_UNIT(.MILLI.,.METRE.) );
#37 = ( NAMED_UNIT(*) PLANE_ANGLE_UNIT() SI_UNIT($,.RADIAN.) );
#38 = ( NAMED_UNIT(*) SI_UNIT($,.STERADIAN.) SOLID_ANGLE_UNIT() );
#39 = UNCERTAINTY_MEASURE_WITH_UNIT(LENGTH_MEASURE(1.E-07),#36,
  'distance_accuracy_value','confusion accuracy');
#40 = PRODUCT_RELATED_PRODUCT_CATEGORY('part',$,(#7));
#41 = SHAPE_DEFINITION_REPRESENTATION(#42,#48);
#42 = PRODUCT_DEFINITION_SHAPE('','',#43);
#43 = PRODUCT_DEFINITION('design','',#44,#47);
#44 = PRODUCT_DEFINITION_FORMATION('','',#45);
#45 = PRODUCT('3Aft-TopTrack','3Aft-TopTrack','',(#46));
#46 = PRODUCT_CONTEXT('',#2,'mechanical');
#47 = PRODUCT_DEFINITION_CONTEXT('part definition',#2,'design');
#48 = SHAPE_REPRESENTATION('',(#11),#49);
#49 = ( GEOMETRIC_REPRESENTATION_CONTEXT(3) 
GLOBAL_UNCERTAINTY_ASSIGNED_CONTEXT((#53)) GLOBAL_UNIT_ASSIGNED_CONTEXT(
(#50,#51,#52)) REPRESENTATION_CONTEXT('Context #1',
  '3D Context with UNIT and UNCERTAINTY') );
#50 = ( LENGTH_UNIT() NAMED_UNIT(*) SI_UNIT(.MILLI.,.METRE.) );
#51 = ( NAMED_UNIT(*) PLANE_ANGLE_UNIT() SI_UNIT($,.RADIAN.) );
#52 = ( NAMED_UNIT(*) SI_UNIT($,.STERADIAN.) SOLID_ANGLE_UNIT() );
#53 = UNCERTAINTY_MEASURE_WITH_UNIT(LENGTH_MEASURE(1.E-07),#50,
  'distance_accuracy_value','confusion accuracy');
#54 = CONTEXT_DEPENDENT_SHAPE_REPRESENTATION(#55,#57);
#55 = ( REPRESENTATION_RELATIONSHIP('','',#48,#10) 
REPRESENTATION_RELATIONSHIP_WITH_TRANSFORMATION(#56) 
SHAPE_REPRESENTATION_RELATIONSHIP() );
#56 = ITEM_DEFINED_TRANSFORMATION('','',#11,#15);
#57 = PRODUCT_DEFINITION_SHAPE('Placement','Placement of an item',#58);
#58 = NEXT_ASSEMBLY_USAGE_OCCURRENCE('1','=>[0:1:1:2]','',#5,#43,$);
#59 = PRODUCT_RELATED_PRODUCT_CATEGORY('part',$,(#45));
#60 = SHAPE_DEFINITION_REPRESENTATION(#61,#67);
#61 = PRODUCT_DEFINITION_SHAPE('','',#62);
#62 = PRODUCT_DEFINITION('design','',#63,#66);
#63 = PRODUCT_DEFINITION_FORMATION('','',#64);
#64 = PRODUCT('3Aft-BottomTrack','3Aft-BottomTrack','',(#65));
#65 = PRODUCT_CONTEXT('',#2,'mechanical');
#66 = PRODUCT_DEFINITION_CONTEXT('part definition',#2,'design');
#67 = SHAPE_REPRESENTATION('',(#11),#68);
#68 = ( GEOMETRIC_REPRESENTATION_CONTEXT(3) 
GLOBAL_UNCERTAINTY_ASSIGNED_CONTEXT((#72)) GLOBAL_UNIT_ASSIGNED_CONTEXT(
(#69,#70,#71)) REPRESENTATION_CONTEXT('Context #1',
  '3D Context with UNIT and UNCERTAINTY') );
#69 = ( LENGTH_UNIT() NAMED_UNIT(*) SI_UNIT(.MILLI.,.METRE.) );
#70 = ( NAMED_UNIT(*) PLANE_ANGLE_UNIT() SI_UNIT($,.RADIAN.) );
#71 = ( NAMED_UNIT(*) SI_UNIT($,.STERADIAN.) SOLID_ANGLE_UNIT() );
#72 = UNCERTAINTY_MEASURE_WITH_UNIT(LENGTH_MEASURE(1.E-07),#69,
  'distance_accuracy_value','confusion accuracy');
#73 = CONTEXT_DEPENDENT_SHAPE_REPRESENTATION(#74,#76);
#74 = ( REPRESENTATION_RELATIONSHIP('','',#67,#10) 
REPRESENTATION_RELATIONSHIP_WITH_TRANSFORMATION(#75) 
SHAPE_REPRESENTATION_RELATIONSHIP() );
#75 = ITEM_DEFINED_TRANSFORMATION('','',#11,#19);
#76 = PRODUCT_DEFINITION_SHAPE('Placement','Placement of an item',#77);
#77 = NEXT_ASSEMBLY_USAGE_OCCURRENCE('2','=>[0:1:1:3]','',#5,#62,$);
#78 = PRODUCT_RELATED_PRODUCT_CATEGORY('part',$,(#64));
#79 = SHAPE_DEFINITION_REPRESENTATION(#80,#86);
#80 = PRODUCT_DEFINITION_SHAPE('','',#81);
#81 = PRODUCT_DEFINITION('design','',#82,#85);
#82 = PRODUCT_DEFINITION_FORMATION('','',#83);
#83 = PRODUCT('3Aft-Board','3Aft-Board','',(#84));
#84 = PRODUCT_CONTEXT('',#2,'mechanical');
#85 = PRODUCT_DEFINITION_CONTEXT('part definition',#2,'design');
#86 = ADVANCED_BREP_SHAPE_REPRESENTATION('',(#11,#87),#673);
#87 = MANIFOLD_SOLID_BREP('',#88);
#88 = CLOSED_SHELL('',(#89,#131,#162,#195,#226,#259,#290,#323,#345,#387,
    #411,#453,#477,#519,#543,#585,#609,#641));
#89 = ADVANCED_FACE('',(#90),#126,.T.);
#90 = FACE_BOUND('',#91,.T.);
#91 = EDGE_LOOP('',(#92,#102,#111,#119));
#92 = ORIENTED_EDGE('',*,*,#93,.T.);
#93 = EDGE_CURVE('',#94,#96,#98,.T.);
#94 = VERTEX_POINT('',#95);
#95 = CARTESIAN_POINT('',(-41.28738379476,49.850101600203,0.));
#96 = VERTEX_POINT('',#97);
#97 = CARTESIAN_POINT('',(-41.28738379476,49.850101600203,1.600050800102
    ));
#98 = LINE('',#99,#100);
#99 = CARTESIAN_POINT('',(-41.28738379476,49.850101600203,0.));
#100 = VECTOR('',#101,1.);
#101 = DIRECTION('',(0.,0.,1.));
#102 = ORIENTED_EDGE('',*,*,#103,.T.);
#103 = EDGE_CURVE('',#96,#104,#106,.T.);
#104 = VERTEX_POINT('',#105);
#105 = CARTESIAN_POINT('',(-40.80008382016,50.337401574803,
    1.600050800102));
#106 = CIRCLE('',#107,0.4872999746);
#107 = AXIS2_PLACEMENT_3D('',#108,#109,#110);
#108 = CARTESIAN_POINT('',(-40.80008382016,49.850101600203,
    1.600050800102));
#109 = DIRECTION('',(0.,0.,-1.));
#110 = DIRECTION('',(-1.,8.055061258585E-17,0.));
#111 = ORIENTED_EDGE('',*,*,#112,.F.);
#112 = EDGE_CURVE('',#113,#104,#115,.T.);
#113 = VERTEX_POINT('',#114);
#114 = CARTESIAN_POINT('',(-40.80008382016,50.337401574803,0.));
#115 = LINE('',#116,#117);
#116 = CARTESIAN_POINT('',(-40.80008382016,50.337401574803,0.));
#117 = VECTOR('',#118,1.);
#118 = DIRECTION('',(0.,0.,1.));
#119 = ORIENTED_EDGE('',*,*,#120,.F.);
#120 = EDGE_CURVE('',#94,#113,#121,.T.);
#121 = CIRCLE('',#122,0.4872999746);
#122 = AXIS2_PLACEMENT_3D('',#123,#124,#125);
#123 = CARTESIAN_POINT('',(-40.80008382016,49.850101600203,0.));
#124 = DIRECTION('',(0.,0.,-1.));
#125 = DIRECTION('',(-1.,8.055061258585E-17,0.));
#126 = CYLINDRICAL_SURFACE('',#127,0.4872999746);
#127 = AXIS2_PLACEMENT_3D('',#128,#129,#130);
#128 = CARTESIAN_POINT('',(-40.80008382016,49.850101600203,0.));
#129 = DIRECTION('',(0.,0.,-1.));
#130 = DIRECTION('',(-1.,8.055061258585E-17,0.));
#131 = ADVANCED_FACE('',(#132),#157,.T.);
#132 = FACE_BOUND('',#133,.T.);
#133 = EDGE_LOOP('',(#134,#135,#143,#151));
#134 = ORIENTED_EDGE('',*,*,#112,.T.);
#135 = ORIENTED_EDGE('',*,*,#136,.T.);
#136 = EDGE_CURVE('',#104,#137,#139,.T.);
#137 = VERTEX_POINT('',#138);
#138 = CARTESIAN_POINT('',(40.800081280163,50.337401574803,
    1.600050800102));
#139 = LINE('',#140,#141);
#140 = CARTESIAN_POINT('',(-40.80008382016,50.337401574803,
    1.600050800102));
#141 = VECTOR('',#142,1.);
#142 = DIRECTION('',(1.,0.,0.));
#143 = ORIENTED_EDGE('',*,*,#144,.F.);
#144 = EDGE_CURVE('',#145,#137,#147,.T.);
#145 = VERTEX_POINT('',#146);
#146 = CARTESIAN_POINT('',(40.800081280163,50.337401574803,0.));
#147 = LINE('',#148,#149);
#148 = CARTESIAN_POINT('',(40.800081280163,50.337401574803,0.));
#149 = VECTOR('',#150,1.);
#150 = DIRECTION('',(0.,0.,1.));
#151 = ORIENTED_EDGE('',*,*,#152,.F.);
#152 = EDGE_CURVE('',#113,#145,#153,.T.);
#153 = LINE('',#154,#155);
#154 = CARTESIAN_POINT('',(-40.80008382016,50.337401574803,0.));
#155 = VECTOR('',#156,1.);
#156 = DIRECTION('',(1.,0.,0.));
#157 = PLANE('',#158);
#158 = AXIS2_PLACEMENT_3D('',#159,#160,#161);
#159 = CARTESIAN_POINT('',(-40.80008382016,50.337401574803,0.));
#160 = DIRECTION('',(0.,1.,0.));
#161 = DIRECTION('',(1.,0.,0.));
#162 = ADVANCED_FACE('',(#163),#190,.T.);
#163 = FACE_BOUND('',#164,.T.);
#164 = EDGE_LOOP('',(#165,#166,#175,#183));
#165 = ORIENTED_EDGE('',*,*,#144,.T.);
#166 = ORIENTED_EDGE('',*,*,#167,.T.);
#167 = EDGE_CURVE('',#137,#168,#170,.T.);
#168 = VERTEX_POINT('',#169);
#169 = CARTESIAN_POINT('',(41.287381254763,49.850101600203,
    1.600050800102));
#170 = CIRCLE('',#171,0.4872999746);
#171 = AXIS2_PLACEMENT_3D('',#172,#173,#174);
#172 = CARTESIAN_POINT('',(40.800081280163,49.850101600203,
    1.600050800102));
#173 = DIRECTION('',(0.,0.,-1.));
#174 = DIRECTION('',(8.055061258585E-17,1.,0.));
#175 = ORIENTED_EDGE('',*,*,#176,.F.);
#176 = EDGE_CURVE('',#177,#168,#179,.T.);
#177 = VERTEX_POINT('',#178);
#178 = CARTESIAN_POINT('',(41.287381254763,49.850101600203,0.));
#179 = LINE('',#180,#181);
#180 = CARTESIAN_POINT('',(41.287381254763,49.850101600203,0.));
#181 = VECTOR('',#182,1.);
#182 = DIRECTION('',(0.,0.,1.));
#183 = ORIENTED_EDGE('',*,*,#184,.F.);
#184 = EDGE_CURVE('',#145,#177,#185,.T.);
#185 = CIRCLE('',#186,0.4872999746);
#186 = AXIS2_PLACEMENT_3D('',#187,#188,#189);
#187 = CARTESIAN_POINT('',(40.800081280163,49.850101600203,0.));
#188 = DIRECTION('',(0.,0.,-1.));
#189 = DIRECTION('',(8.055061258585E-17,1.,0.));
#190 = CYLINDRICAL_SURFACE('',#191,0.4872999746);
#191 = AXIS2_PLACEMENT_3D('',#192,#193,#194);
#192 = CARTESIAN_POINT('',(40.800081280163,49.850101600203,0.));
#193 = DIRECTION('',(0.,0.,-1.));
#194 = DIRECTION('',(8.055061258585E-17,1.,0.));
#195 = ADVANCED_FACE('',(#196),#221,.T.);
#196 = FACE_BOUND('',#197,.T.);
#197 = EDGE_LOOP('',(#198,#199,#207,#215));
#198 = ORIENTED_EDGE('',*,*,#176,.T.);
#199 = ORIENTED_EDGE('',*,*,#200,.T.);
#200 = EDGE_CURVE('',#168,#201,#203,.T.);
#201 = VERTEX_POINT('',#202);
#202 = CARTESIAN_POINT('',(41.287381254763,-49.85009906019,
    1.600050800102));
#203 = LINE('',#204,#205);
#204 = CARTESIAN_POINT('',(41.287381254763,49.850101600203,
    1.600050800102));
#205 = VECTOR('',#206,1.);
#206 = DIRECTION('',(0.,-1.,0.));
#207 = ORIENTED_EDGE('',*,*,#208,.F.);
#208 = EDGE_CURVE('',#209,#201,#211,.T.);
#209 = VERTEX_POINT('',#210);
#210 = CARTESIAN_POINT('',(41.287381254763,-49.85009906019,0.));
#211 = LINE('',#212,#213);
#212 = CARTESIAN_POINT('',(41.287381254763,-49.85009906019,0.));
#213 = VECTOR('',#214,1.);
#214 = DIRECTION('',(0.,0.,1.));
#215 = ORIENTED_EDGE('',*,*,#216,.F.);
#216 = EDGE_CURVE('',#177,#209,#217,.T.);
#217 = LINE('',#218,#219);
#218 = CARTESIAN_POINT('',(41.287381254763,49.850101600203,0.));
#219 = VECTOR('',#220,1.);
#220 = DIRECTION('',(0.,-1.,0.));
#221 = PLANE('',#222);
#222 = AXIS2_PLACEMENT_3D('',#223,#224,#225);
#223 = CARTESIAN_POINT('',(41.287381254763,49.850101600203,0.));
#224 = DIRECTION('',(1.,0.,-0.));
#225 = DIRECTION('',(0.,-1.,0.));
#226 = ADVANCED_FACE('',(#227),#254,.T.);
#227 = FACE_BOUND('',#228,.T.);
#228 = EDGE_LOOP('',(#229,#230,#239,#247));
#229 = ORIENTED_EDGE('',*,*,#208,.T.);
#230 = ORIENTED_EDGE('',*,*,#231,.T.);
#231 = EDGE_CURVE('',#201,#232,#234,.T.);
#232 = VERTEX_POINT('',#233);
#233 = CARTESIAN_POINT('',(40.800081280163,-50.33739903479,
    1.600050800102));
#234 = CIRCLE('',#235,0.4872999746);
#235 = AXIS2_PLACEMENT_3D('',#236,#237,#238);
#236 = CARTESIAN_POINT('',(40.800081280163,-49.85009906019,
    1.600050800102));
#237 = DIRECTION('',(0.,0.,-1.));
#238 = DIRECTION('',(1.,-8.055061258585E-17,0.));
#239 = ORIENTED_EDGE('',*,*,#240,.F.);
#240 = EDGE_CURVE('',#241,#232,#243,.T.);
#241 = VERTEX_POINT('',#242);
#242 = CARTESIAN_POINT('',(40.800081280163,-50.33739903479,0.));
#243 = LINE('',#244,#245);
#244 = CARTESIAN_POINT('',(40.800081280163,-50.33739903479,0.));
#245 = VECTOR('',#246,1.);
#246 = DIRECTION('',(0.,0.,1.));
#247 = ORIENTED_EDGE('',*,*,#248,.F.);
#248 = EDGE_CURVE('',#209,#241,#249,.T.);
#249 = CIRCLE('',#250,0.4872999746);
#250 = AXIS2_PLACEMENT_3D('',#251,#252,#253);
#251 = CARTESIAN_POINT('',(40.800081280163,-49.85009906019,0.));
#252 = DIRECTION('',(0.,0.,-1.));
#253 = DIRECTION('',(1.,-8.055061258585E-17,0.));
#254 = CYLINDRICAL_SURFACE('',#255,0.4872999746);
#255 = AXIS2_PLACEMENT_3D('',#256,#257,#258);
#256 = CARTESIAN_POINT('',(40.800081280163,-49.85009906019,0.));
#257 = DIRECTION('',(0.,0.,-1.));
#258 = DIRECTION('',(1.,-8.055061258585E-17,0.));
#259 = ADVANCED_FACE('',(#260),#285,.T.);
#260 = FACE_BOUND('',#261,.T.);
#261 = EDGE_LOOP('',(#262,#263,#271,#279));
#262 = ORIENTED_EDGE('',*,*,#240,.T.);
#263 = ORIENTED_EDGE('',*,*,#264,.T.);
#264 = EDGE_CURVE('',#232,#265,#267,.T.);
#265 = VERTEX_POINT('',#266);
#266 = CARTESIAN_POINT('',(-40.80008382016,-50.33739903479,
    1.600050800102));
#267 = LINE('',#268,#269);
#268 = CARTESIAN_POINT('',(40.800081280163,-50.33739903479,
    1.600050800102));
#269 = VECTOR('',#270,1.);
#270 = DIRECTION('',(-1.,0.,0.));
#271 = ORIENTED_EDGE('',*,*,#272,.F.);
#272 = EDGE_CURVE('',#273,#265,#275,.T.);
#273 = VERTEX_POINT('',#274);
#274 = CARTESIAN_POINT('',(-40.80008382016,-50.33739903479,0.));
#275 = LINE('',#276,#277);
#276 = CARTESIAN_POINT('',(-40.80008382016,-50.33739903479,0.));
#277 = VECTOR('',#278,1.);
#278 = DIRECTION('',(0.,0.,1.));
#279 = ORIENTED_EDGE('',*,*,#280,.F.);
#280 = EDGE_CURVE('',#241,#273,#281,.T.);
#281 = LINE('',#282,#283);
#282 = CARTESIAN_POINT('',(40.800081280163,-50.33739903479,0.));
#283 = VECTOR('',#284,1.);
#284 = DIRECTION('',(-1.,0.,0.));
#285 = PLANE('',#286);
#286 = AXIS2_PLACEMENT_3D('',#287,#288,#289);
#287 = CARTESIAN_POINT('',(40.800081280163,-50.33739903479,0.));
#288 = DIRECTION('',(0.,-1.,0.));
#289 = DIRECTION('',(-1.,0.,0.));
#290 = ADVANCED_FACE('',(#291),#318,.T.);
#291 = FACE_BOUND('',#292,.T.);
#292 = EDGE_LOOP('',(#293,#294,#303,#311));
#293 = ORIENTED_EDGE('',*,*,#272,.T.);
#294 = ORIENTED_EDGE('',*,*,#295,.T.);
#295 = EDGE_CURVE('',#265,#296,#298,.T.);
#296 = VERTEX_POINT('',#297);
#297 = CARTESIAN_POINT('',(-41.28738379476,-49.85009906019,
    1.600050800102));
#298 = CIRCLE('',#299,0.4872999746);
#299 = AXIS2_PLACEMENT_3D('',#300,#301,#302);
#300 = CARTESIAN_POINT('',(-40.80008382016,-49.85009906019,
    1.600050800102));
#301 = DIRECTION('',(0.,0.,-1.));
#302 = DIRECTION('',(-8.055061258585E-17,-1.,-0.));
#303 = ORIENTED_EDGE('',*,*,#304,.F.);
#304 = EDGE_CURVE('',#305,#296,#307,.T.);
#305 = VERTEX_POINT('',#306);
#306 = CARTESIAN_POINT('',(-41.28738379476,-49.85009906019,0.));
#307 = LINE('',#308,#309);
#308 = CARTESIAN_POINT('',(-41.28738379476,-49.85009906019,0.));
#309 = VECTOR('',#310,1.);
#310 = DIRECTION('',(0.,0.,1.));
#311 = ORIENTED_EDGE('',*,*,#312,.F.);
#312 = EDGE_CURVE('',#273,#305,#313,.T.);
#313 = CIRCLE('',#314,0.4872999746);
#314 = AXIS2_PLACEMENT_3D('',#315,#316,#317);
#315 = CARTESIAN_POINT('',(-40.80008382016,-49.85009906019,0.));
#316 = DIRECTION('',(0.,0.,-1.));
#317 = DIRECTION('',(-8.055061258585E-17,-1.,-0.));
#318 = CYLINDRICAL_SURFACE('',#319,0.4872999746);
#319 = AXIS2_PLACEMENT_3D('',#320,#321,#322);
#320 = CARTESIAN_POINT('',(-40.80008382016,-49.85009906019,0.));
#321 = DIRECTION('',(0.,0.,-1.));
#322 = DIRECTION('',(-8.055061258585E-17,-1.,-0.));
#323 = ADVANCED_FACE('',(#324),#340,.T.);
#324 = FACE_BOUND('',#325,.T.);
#325 = EDGE_LOOP('',(#326,#327,#333,#334));
#326 = ORIENTED_EDGE('',*,*,#304,.T.);
#327 = ORIENTED_EDGE('',*,*,#328,.T.);
#328 = EDGE_CURVE('',#296,#96,#329,.T.);
#329 = LINE('',#330,#331);
#330 = CARTESIAN_POINT('',(-41.28738379476,-49.85009906019,
    1.600050800102));
#331 = VECTOR('',#332,1.);
#332 = DIRECTION('',(0.,1.,0.));
#333 = ORIENTED_EDGE('',*,*,#93,.F.);
#334 = ORIENTED_EDGE('',*,*,#335,.F.);
#335 = EDGE_CURVE('',#305,#94,#336,.T.);
#336 = LINE('',#337,#338);
#337 = CARTESIAN_POINT('',(-41.28738379476,-49.85009906019,0.));
#338 = VECTOR('',#339,1.);
#339 = DIRECTION('',(0.,1.,0.));
#340 = PLANE('',#341);
#341 = AXIS2_PLACEMENT_3D('',#342,#343,#344);
#342 = CARTESIAN_POINT('',(-41.28738379476,-49.85009906019,0.));
#343 = DIRECTION('',(-1.,0.,0.));
#344 = DIRECTION('',(0.,1.,0.));
#345 = ADVANCED_FACE('',(#346),#382,.F.);
#346 = FACE_BOUND('',#347,.T.);
#347 = EDGE_LOOP('',(#348,#358,#367,#375));
#348 = ORIENTED_EDGE('',*,*,#349,.T.);
#349 = EDGE_CURVE('',#350,#352,#354,.T.);
#350 = VERTEX_POINT('',#351);
#351 = CARTESIAN_POINT('',(-32.50006350012,46.650093980188,0.));
#352 = VERTEX_POINT('',#353);
#353 = CARTESIAN_POINT('',(-32.50006350012,46.650093980188,
    1.600050800102));
#354 = LINE('',#355,#356);
#355 = CARTESIAN_POINT('',(-32.50006350012,46.650093980188,0.));
#356 = VECTOR('',#357,1.);
#357 = DIRECTION('',(0.,0.,1.));
#358 = ORIENTED_EDGE('',*,*,#359,.T.);
#359 = EDGE_CURVE('',#352,#360,#362,.T.);
#360 = VERTEX_POINT('',#361);
#361 = CARTESIAN_POINT('',(-34.50006858013,46.650093980188,
    1.600050800102));
#362 = CIRCLE('',#363,1.000002540005);
#363 = AXIS2_PLACEMENT_3D('',#364,#365,#366);
#364 = CARTESIAN_POINT('',(-33.50006604013,46.650093980188,
    1.600050800102));
#365 = DIRECTION('',(0.,0.,1.));
#366 = DIRECTION('',(1.,1.110223024625E-16,-0.));
#367 = ORIENTED_EDGE('',*,*,#368,.F.);
#368 = EDGE_CURVE('',#369,#360,#371,.T.);
#369 = VERTEX_POINT('',#370);
#370 = CARTESIAN_POINT('',(-34.50006858013,46.650093980188,0.));
#371 = LINE('',#372,#373);
#372 = CARTESIAN_POINT('',(-34.50006858013,46.650093980188,0.));
#373 = VECTOR('',#374,1.);
#374 = DIRECTION('',(0.,0.,1.));
#375 = ORIENTED_EDGE('',*,*,#376,.F.);
#376 = EDGE_CURVE('',#350,#369,#377,.T.);
#377 = CIRCLE('',#378,1.000002540005);
#378 = AXIS2_PLACEMENT_3D('',#379,#380,#381);
#379 = CARTESIAN_POINT('',(-33.50006604013,46.650093980188,0.));
#380 = DIRECTION('',(0.,0.,1.));
#381 = DIRECTION('',(1.,1.110223024625E-16,-0.));
#382 = CYLINDRICAL_SURFACE('',#383,1.000002540005);
#383 = AXIS2_PLACEMENT_3D('',#384,#385,#386);
#384 = CARTESIAN_POINT('',(-33.50006604013,46.650093980188,0.));
#385 = DIRECTION('',(-0.,-0.,-1.));
#386 = DIRECTION('',(1.,1.110223024625E-16,-0.));
#387 = ADVANCED_FACE('',(#388),#406,.F.);
#388 = FACE_BOUND('',#389,.T.);
#389 = EDGE_LOOP('',(#390,#391,#398,#399));
#390 = ORIENTED_EDGE('',*,*,#368,.T.);
#391 = ORIENTED_EDGE('',*,*,#392,.T.);
#392 = EDGE_CURVE('',#360,#352,#393,.T.);
#393 = CIRCLE('',#394,1.000002540005);
#394 = AXIS2_PLACEMENT_3D('',#395,#396,#397);
#395 = CARTESIAN_POINT('',(-33.50006604013,46.650093980188,
    1.600050800102));
#396 = DIRECTION('',(0.,0.,1.));
#397 = DIRECTION('',(-1.,-1.110223024625E-16,0.));
#398 = ORIENTED_EDGE('',*,*,#349,.F.);
#399 = ORIENTED_EDGE('',*,*,#400,.F.);
#400 = EDGE_CURVE('',#369,#350,#401,.T.);
#401 = CIRCLE('',#402,1.000002540005);
#402 = AXIS2_PLACEMENT_3D('',#403,#404,#405);
#403 = CARTESIAN_POINT('',(-33.50006604013,46.650093980188,0.));
#404 = DIRECTION('',(0.,0.,1.));
#405 = DIRECTION('',(-1.,-1.110223024625E-16,0.));
#406 = CYLINDRICAL_SURFACE('',#407,1.000002540005);
#407 = AXIS2_PLACEMENT_3D('',#408,#409,#410);
#408 = CARTESIAN_POINT('',(-33.50006604013,46.650093980188,0.));
#409 = DIRECTION('',(-0.,-0.,-1.));
#410 = DIRECTION('',(-1.,-1.110223024625E-16,0.));
#411 = ADVANCED_FACE('',(#412),#448,.F.);
#412 = FACE_BOUND('',#413,.T.);
#413 = EDGE_LOOP('',(#414,#424,#433,#441));
#414 = ORIENTED_EDGE('',*,*,#415,.T.);
#415 = EDGE_CURVE('',#416,#418,#420,.T.);
#416 = VERTEX_POINT('',#417);
#417 = CARTESIAN_POINT('',(-31.50006350012,-47.35009398018,0.));
#418 = VERTEX_POINT('',#419);
#419 = CARTESIAN_POINT('',(-31.50006350012,-47.35009398018,
    1.600050800102));
#420 = LINE('',#421,#422);
#421 = CARTESIAN_POINT('',(-31.50006350012,-47.35009398018,0.));
#422 = VECTOR('',#423,1.);
#423 = DIRECTION('',(0.,0.,1.));
#424 = ORIENTED_EDGE('',*,*,#425,.T.);
#425 = EDGE_CURVE('',#418,#426,#428,.T.);
#426 = VERTEX_POINT('',#427);
#427 = CARTESIAN_POINT('',(-33.50006858013,-47.35009398018,
    1.600050800102));
#428 = CIRCLE('',#429,1.000002540005);
#429 = AXIS2_PLACEMENT_3D('',#430,#431,#432);
#430 = CARTESIAN_POINT('',(-32.50006604013,-47.35009398018,
    1.600050800102));
#431 = DIRECTION('',(0.,0.,1.));
#432 = DIRECTION('',(1.,1.110223024625E-16,-0.));
#433 = ORIENTED_EDGE('',*,*,#434,.F.);
#434 = EDGE_CURVE('',#435,#426,#437,.T.);
#435 = VERTEX_POINT('',#436);
#436 = CARTESIAN_POINT('',(-33.50006858013,-47.35009398018,0.));
#437 = LINE('',#438,#439);
#438 = CARTESIAN_POINT('',(-33.50006858013,-47.35009398018,0.));
#439 = VECTOR('',#440,1.);
#440 = DIRECTION('',(0.,0.,1.));
#441 = ORIENTED_EDGE('',*,*,#442,.F.);
#442 = EDGE_CURVE('',#416,#435,#443,.T.);
#443 = CIRCLE('',#444,1.000002540005);
#444 = AXIS2_PLACEMENT_3D('',#445,#446,#447);
#445 = CARTESIAN_POINT('',(-32.50006604013,-47.35009398018,0.));
#446 = DIRECTION('',(0.,0.,1.));
#447 = DIRECTION('',(1.,1.110223024625E-16,-0.));
#448 = CYLINDRICAL_SURFACE('',#449,1.000002540005);
#449 = AXIS2_PLACEMENT_3D('',#450,#451,#452);
#450 = CARTESIAN_POINT('',(-32.50006604013,-47.35009398018,0.));
#451 = DIRECTION('',(-0.,-0.,-1.));
#452 = DIRECTION('',(1.,1.110223024625E-16,-0.));
#453 = ADVANCED_FACE('',(#454),#472,.F.);
#454 = FACE_BOUND('',#455,.T.);
#455 = EDGE_LOOP('',(#456,#457,#464,#465));
#456 = ORIENTED_EDGE('',*,*,#434,.T.);
#457 = ORIENTED_EDGE('',*,*,#458,.T.);
#458 = EDGE_CURVE('',#426,#418,#459,.T.);
#459 = CIRCLE('',#460,1.000002540005);
#460 = AXIS2_PLACEMENT_3D('',#461,#462,#463);
#461 = CARTESIAN_POINT('',(-32.50006604013,-47.35009398018,
    1.600050800102));
#462 = DIRECTION('',(0.,0.,1.));
#463 = DIRECTION('',(-1.,-1.110223024625E-16,0.));
#464 = ORIENTED_EDGE('',*,*,#415,.F.);
#465 = ORIENTED_EDGE('',*,*,#466,.F.);
#466 = EDGE_CURVE('',#435,#416,#467,.T.);
#467 = CIRCLE('',#468,1.000002540005);
#468 = AXIS2_PLACEMENT_3D('',#469,#470,#471);
#469 = CARTESIAN_POINT('',(-32.50006604013,-47.35009398018,0.));
#470 = DIRECTION('',(0.,0.,1.));
#471 = DIRECTION('',(-1.,-1.110223024625E-16,0.));
#472 = CYLINDRICAL_SURFACE('',#473,1.000002540005);
#473 = AXIS2_PLACEMENT_3D('',#474,#475,#476);
#474 = CARTESIAN_POINT('',(-32.50006604013,-47.35009398018,0.));
#475 = DIRECTION('',(-0.,-0.,-1.));
#476 = DIRECTION('',(-1.,-1.110223024625E-16,0.));
#477 = ADVANCED_FACE('',(#478),#514,.F.);
#478 = FACE_BOUND('',#479,.T.);
#479 = EDGE_LOOP('',(#480,#490,#499,#507));
#480 = ORIENTED_EDGE('',*,*,#481,.T.);
#481 = EDGE_CURVE('',#482,#484,#486,.T.);
#482 = VERTEX_POINT('',#483);
#483 = CARTESIAN_POINT('',(33.500068580137,-47.35009398018,0.));
#484 = VERTEX_POINT('',#485);
#485 = CARTESIAN_POINT('',(33.500068580137,-47.35009398018,
    1.600050800102));
#486 = LINE('',#487,#488);
#487 = CARTESIAN_POINT('',(33.500068580137,-47.35009398018,0.));
#488 = VECTOR('',#489,1.);
#489 = DIRECTION('',(0.,0.,1.));
#490 = ORIENTED_EDGE('',*,*,#491,.T.);
#491 = EDGE_CURVE('',#484,#492,#494,.T.);
#492 = VERTEX_POINT('',#493);
#493 = CARTESIAN_POINT('',(31.500063500127,-47.35009398018,
    1.600050800102));
#494 = CIRCLE('',#495,1.000002540005);
#495 = AXIS2_PLACEMENT_3D('',#496,#497,#498);
#496 = CARTESIAN_POINT('',(32.500066040132,-47.35009398018,
    1.600050800102));
#497 = DIRECTION('',(0.,0.,1.));
#498 = DIRECTION('',(1.,1.110223024625E-16,-0.));
#499 = ORIENTED_EDGE('',*,*,#500,.F.);
#500 = EDGE_CURVE('',#501,#492,#503,.T.);
#501 = VERTEX_POINT('',#502);
#502 = CARTESIAN_POINT('',(31.500063500127,-47.35009398018,0.));
#503 = LINE('',#504,#505);
#504 = CARTESIAN_POINT('',(31.500063500127,-47.35009398018,0.));
#505 = VECTOR('',#506,1.);
#506 = DIRECTION('',(0.,0.,1.));
#507 = ORIENTED_EDGE('',*,*,#508,.F.);
#508 = EDGE_CURVE('',#482,#501,#509,.T.);
#509 = CIRCLE('',#510,1.000002540005);
#510 = AXIS2_PLACEMENT_3D('',#511,#512,#513);
#511 = CARTESIAN_POINT('',(32.500066040132,-47.35009398018,0.));
#512 = DIRECTION('',(0.,0.,1.));
#513 = DIRECTION('',(1.,1.110223024625E-16,-0.));
#514 = CYLINDRICAL_SURFACE('',#515,1.000002540005);
#515 = AXIS2_PLACEMENT_3D('',#516,#517,#518);
#516 = CARTESIAN_POINT('',(32.500066040132,-47.35009398018,0.));
#517 = DIRECTION('',(-0.,-0.,-1.));
#518 = DIRECTION('',(1.,1.110223024625E-16,-0.));
#519 = ADVANCED_FACE('',(#520),#538,.F.);
#520 = FACE_BOUND('',#521,.T.);
#521 = EDGE_LOOP('',(#522,#523,#530,#531));
#522 = ORIENTED_EDGE('',*,*,#500,.T.);
#523 = ORIENTED_EDGE('',*,*,#524,.T.);
#524 = EDGE_CURVE('',#492,#484,#525,.T.);
#525 = CIRCLE('',#526,1.000002540005);
#526 = AXIS2_PLACEMENT_3D('',#527,#528,#529);
#527 = CARTESIAN_POINT('',(32.500066040132,-47.35009398018,
    1.600050800102));
#528 = DIRECTION('',(0.,0.,1.));
#529 = DIRECTION('',(-1.,-1.110223024625E-16,0.));
#530 = ORIENTED_EDGE('',*,*,#481,.F.);
#531 = ORIENTED_EDGE('',*,*,#532,.F.);
#532 = EDGE_CURVE('',#501,#482,#533,.T.);
#533 = CIRCLE('',#534,1.000002540005);
#534 = AXIS2_PLACEMENT_3D('',#535,#536,#537);
#535 = CARTESIAN_POINT('',(32.500066040132,-47.35009398018,0.));
#536 = DIRECTION('',(0.,0.,1.));
#537 = DIRECTION('',(-1.,-1.110223024625E-16,0.));
#538 = CYLINDRICAL_SURFACE('',#539,1.000002540005);
#539 = AXIS2_PLACEMENT_3D('',#540,#541,#542);
#540 = CARTESIAN_POINT('',(32.500066040132,-47.35009398018,0.));
#541 = DIRECTION('',(-0.,-0.,-1.));
#542 = DIRECTION('',(-1.,-1.110223024625E-16,0.));
#543 = ADVANCED_FACE('',(#544),#580,.F.);
#544 = FACE_BOUND('',#545,.T.);
#545 = EDGE_LOOP('',(#546,#556,#565,#573));
#546 = ORIENTED_EDGE('',*,*,#547,.T.);
#547 = EDGE_CURVE('',#548,#550,#552,.T.);
#548 = VERTEX_POINT('',#549);
#549 = CARTESIAN_POINT('',(34.500068580137,46.650093980188,0.));
#550 = VERTEX_POINT('',#551);
#551 = CARTESIAN_POINT('',(34.500068580137,46.650093980188,
    1.600050800102));
#552 = LINE('',#553,#554);
#553 = CARTESIAN_POINT('',(34.500068580137,46.650093980188,0.));
#554 = VECTOR('',#555,1.);
#555 = DIRECTION('',(0.,0.,1.));
#556 = ORIENTED_EDGE('',*,*,#557,.T.);
#557 = EDGE_CURVE('',#550,#558,#560,.T.);
#558 = VERTEX_POINT('',#559);
#559 = CARTESIAN_POINT('',(32.500063500127,46.650093980188,
    1.600050800102));
#560 = CIRCLE('',#561,1.000002540005);
#561 = AXIS2_PLACEMENT_3D('',#562,#563,#564);
#562 = CARTESIAN_POINT('',(33.500066040132,46.650093980188,
    1.600050800102));
#563 = DIRECTION('',(0.,0.,1.));
#564 = DIRECTION('',(1.,1.110223024625E-16,-0.));
#565 = ORIENTED_EDGE('',*,*,#566,.F.);
#566 = EDGE_CURVE('',#567,#558,#569,.T.);
#567 = VERTEX_POINT('',#568);
#568 = CARTESIAN_POINT('',(32.500063500127,46.650093980188,0.));
#569 = LINE('',#570,#571);
#570 = CARTESIAN_POINT('',(32.500063500127,46.650093980188,0.));
#571 = VECTOR('',#572,1.);
#572 = DIRECTION('',(0.,0.,1.));
#573 = ORIENTED_EDGE('',*,*,#574,.F.);
#574 = EDGE_CURVE('',#548,#567,#575,.T.);
#575 = CIRCLE('',#576,1.000002540005);
#576 = AXIS2_PLACEMENT_3D('',#577,#578,#579);
#577 = CARTESIAN_POINT('',(33.500066040132,46.650093980188,0.));
#578 = DIRECTION('',(0.,0.,1.));
#579 = DIRECTION('',(1.,1.110223024625E-16,-0.));
#580 = CYLINDRICAL_SURFACE('',#581,1.000002540005);
#581 = AXIS2_PLACEMENT_3D('',#582,#583,#584);
#582 = CARTESIAN_POINT('',(33.500066040132,46.650093980188,0.));
#583 = DIRECTION('',(-0.,-0.,-1.));
#584 = DIRECTION('',(1.,1.110223024625E-16,-0.));
#585 = ADVANCED_FACE('',(#586),#604,.F.);
#586 = FACE_BOUND('',#587,.T.);
#587 = EDGE_LOOP('',(#588,#589,#596,#597));
#588 = ORIENTED_EDGE('',*,*,#566,.T.);
#589 = ORIENTED_EDGE('',*,*,#590,.T.);
#590 = EDGE_CURVE('',#558,#550,#591,.T.);
#591 = CIRCLE('',#592,1.000002540005);
#592 = AXIS2_PLACEMENT_3D('',#593,#594,#595);
#593 = CARTESIAN_POINT('',(33.500066040132,46.650093980188,
    1.600050800102));
#594 = DIRECTION('',(0.,0.,1.));
#595 = DIRECTION('',(-1.,-1.110223024625E-16,0.));
#596 = ORIENTED_EDGE('',*,*,#547,.F.);
#597 = ORIENTED_EDGE('',*,*,#598,.F.);
#598 = EDGE_CURVE('',#567,#548,#599,.T.);
#599 = CIRCLE('',#600,1.000002540005);
#600 = AXIS2_PLACEMENT_3D('',#601,#602,#603);
#601 = CARTESIAN_POINT('',(33.500066040132,46.650093980188,0.));
#602 = DIRECTION('',(0.,0.,1.));
#603 = DIRECTION('',(-1.,-1.110223024625E-16,0.));
#604 = CYLINDRICAL_SURFACE('',#605,1.000002540005);
#605 = AXIS2_PLACEMENT_3D('',#606,#607,#608);
#606 = CARTESIAN_POINT('',(33.500066040132,46.650093980188,0.));
#607 = DIRECTION('',(-0.,-0.,-1.));
#608 = DIRECTION('',(-1.,-1.110223024625E-16,0.));
#609 = ADVANCED_FACE('',(#610,#620,#624,#628,#632),#636,.T.);
#610 = FACE_BOUND('',#611,.T.);
#611 = EDGE_LOOP('',(#612,#613,#614,#615,#616,#617,#618,#619));
#612 = ORIENTED_EDGE('',*,*,#120,.T.);
#613 = ORIENTED_EDGE('',*,*,#152,.T.);
#614 = ORIENTED_EDGE('',*,*,#184,.T.);
#615 = ORIENTED_EDGE('',*,*,#216,.T.);
#616 = ORIENTED_EDGE('',*,*,#248,.T.);
#617 = ORIENTED_EDGE('',*,*,#280,.T.);
#618 = ORIENTED_EDGE('',*,*,#312,.T.);
#619 = ORIENTED_EDGE('',*,*,#335,.T.);
#620 = FACE_BOUND('',#621,.T.);
#621 = EDGE_LOOP('',(#622,#623));
#622 = ORIENTED_EDGE('',*,*,#376,.T.);
#623 = ORIENTED_EDGE('',*,*,#400,.T.);
#624 = FACE_BOUND('',#625,.T.);
#625 = EDGE_LOOP('',(#626,#627));
#626 = ORIENTED_EDGE('',*,*,#442,.T.);
#627 = ORIENTED_EDGE('',*,*,#466,.T.);
#628 = FACE_BOUND('',#629,.T.);
#629 = EDGE_LOOP('',(#630,#631));
#630 = ORIENTED_EDGE('',*,*,#508,.T.);
#631 = ORIENTED_EDGE('',*,*,#532,.T.);
#632 = FACE_BOUND('',#633,.T.);
#633 = EDGE_LOOP('',(#634,#635));
#634 = ORIENTED_EDGE('',*,*,#574,.T.);
#635 = ORIENTED_EDGE('',*,*,#598,.T.);
#636 = PLANE('',#637);
#637 = AXIS2_PLACEMENT_3D('',#638,#639,#640);
#638 = CARTESIAN_POINT('',(-1.270002543852E-06,1.270002547583E-06,0.));
#639 = DIRECTION('',(-0.,-0.,-1.));
#640 = DIRECTION('',(-1.,0.,0.));
#641 = ADVANCED_FACE('',(#642,#652,#656,#660,#664),#668,.F.);
#642 = FACE_BOUND('',#643,.F.);
#643 = EDGE_LOOP('',(#644,#645,#646,#647,#648,#649,#650,#651));
#644 = ORIENTED_EDGE('',*,*,#103,.T.);
#645 = ORIENTED_EDGE('',*,*,#136,.T.);
#646 = ORIENTED_EDGE('',*,*,#167,.T.);
#647 = ORIENTED_EDGE('',*,*,#200,.T.);
#648 = ORIENTED_EDGE('',*,*,#231,.T.);
#649 = ORIENTED_EDGE('',*,*,#264,.T.);
#650 = ORIENTED_EDGE('',*,*,#295,.T.);
#651 = ORIENTED_EDGE('',*,*,#328,.T.);
#652 = FACE_BOUND('',#653,.F.);
#653 = EDGE_LOOP('',(#654,#655));
#654 = ORIENTED_EDGE('',*,*,#359,.T.);
#655 = ORIENTED_EDGE('',*,*,#392,.T.);
#656 = FACE_BOUND('',#657,.F.);
#657 = EDGE_LOOP('',(#658,#659));
#658 = ORIENTED_EDGE('',*,*,#425,.T.);
#659 = ORIENTED_EDGE('',*,*,#458,.T.);
#660 = FACE_BOUND('',#661,.F.);
#661 = EDGE_LOOP('',(#662,#663));
#662 = ORIENTED_EDGE('',*,*,#491,.T.);
#663 = ORIENTED_EDGE('',*,*,#524,.T.);
#664 = FACE_BOUND('',#665,.F.);
#665 = EDGE_LOOP('',(#666,#667));
#666 = ORIENTED_EDGE('',*,*,#557,.T.);
#667 = ORIENTED_EDGE('',*,*,#590,.T.);
#668 = PLANE('',#669);
#669 = AXIS2_PLACEMENT_3D('',#670,#671,#672);
#670 = CARTESIAN_POINT('',(-1.270002543852E-06,1.270002547583E-06,
    1.600050800102));
#671 = DIRECTION('',(-0.,-0.,-1.));
#672 = DIRECTION('',(-1.,0.,0.));
#673 = ( GEOMETRIC_REPRESENTATION_CONTEXT(3) 
GLOBAL_UNCERTAINTY_ASSIGNED_CONTEXT((#677)) GLOBAL_UNIT_ASSIGNED_CONTEXT
((#674,#675,#676)) REPRESENTATION_CONTEXT('Context #1',
  '3D Context with UNIT and UNCERTAINTY') );
#674 = ( LENGTH_UNIT() NAMED_UNIT(*) SI_UNIT(.MILLI.,.METRE.) );
#675 = ( NAMED_UNIT(*) PLANE_ANGLE_UNIT() SI_UNIT($,.RADIAN.) );
#676 = ( NAMED_UNIT(*) SI_UNIT($,.STERADIAN.) SOLID_ANGLE_UNIT() );
#677 = UNCERTAINTY_MEASURE_WITH_UNIT(LENGTH_MEASURE(1.E-07),#674,
  'distance_accuracy_value','confusion accuracy');
#678 = CONTEXT_DEPENDENT_SHAPE_REPRESENTATION(#679,#681);
#679 = ( REPRESENTATION_RELATIONSHIP('','',#86,#10) 
REPRESENTATION_RELATIONSHIP_WITH_TRANSFORMATION(#680) 
SHAPE_REPRESENTATION_RELATIONSHIP() );
#680 = ITEM_DEFINED_TRANSFORMATION('','',#11,#23);
#681 = PRODUCT_DEFINITION_SHAPE('Placement','Placement of an item',#682
  );
#682 = NEXT_ASSEMBLY_USAGE_OCCURRENCE('3','=>[0:1:1:4]','',#5,#81,$);
#683 = PRODUCT_RELATED_PRODUCT_CATEGORY('part',$,(#83));
#684 = SHAPE_DEFINITION_REPRESENTATION(#685,#691);
#685 = PRODUCT_DEFINITION_SHAPE('','',#686);
#686 = PRODUCT_DEFINITION('design','',#687,#690);
#687 = PRODUCT_DEFINITION_FORMATION('','',#688);
#688 = PRODUCT('3Aft-Top FPC Stiffener','3Aft-Top FPC Stiffener','',(
    #689));
#689 = PRODUCT_CONTEXT('',#2,'mechanical');
#690 = PRODUCT_DEFINITION_CONTEXT('part definition',#2,'design');
#691 = SHAPE_REPRESENTATION('',(#11),#692);
#692 = ( GEOMETRIC_REPRESENTATION_CONTEXT(3) 
GLOBAL_UNCERTAINTY_ASSIGNED_CONTEXT((#696)) GLOBAL_UNIT_ASSIGNED_CONTEXT
((#693,#694,#695)) REPRESENTATION_CONTEXT('Context #1',
  '3D Context with UNIT and UNCERTAINTY') );
#693 = ( LENGTH_UNIT() NAMED_UNIT(*) SI_UNIT(.MILLI.,.METRE.) );
#694 = ( NAMED_UNIT(*) PLANE_ANGLE_UNIT() SI_UNIT($,.RADIAN.) );
#695 = ( NAMED_UNIT(*) SI_UNIT($,.STERADIAN.) SOLID_ANGLE_UNIT() );
#696 = UNCERTAINTY_MEASURE_WITH_UNIT(LENGTH_MEASURE(1.E-07),#693,
  'distance_accuracy_value','confusion accuracy');
#697 = CONTEXT_DEPENDENT_SHAPE_REPRESENTATION(#698,#700);
#698 = ( REPRESENTATION_RELATIONSHIP('','',#691,#10) 
REPRESENTATION_RELATIONSHIP_WITH_TRANSFORMATION(#699) 
SHAPE_REPRESENTATION_RELATIONSHIP() );
#699 = ITEM_DEFINED_TRANSFORMATION('','',#11,#27);
#700 = PRODUCT_DEFINITION_SHAPE('Placement','Placement of an item',#701
  );
#701 = NEXT_ASSEMBLY_USAGE_OCCURRENCE('4','=>[0:1:1:5]','',#5,#686,$);
#702 = PRODUCT_RELATED_PRODUCT_CATEGORY('part',$,(#688));
#703 = SHAPE_DEFINITION_REPRESENTATION(#704,#710);
#704 = PRODUCT_DEFINITION_SHAPE('','',#705);
#705 = PRODUCT_DEFINITION('design','',#706,#709);
#706 = PRODUCT_DEFINITION_FORMATION('','',#707);
#707 = PRODUCT('3Aft-Bot FPC Stiffener','3Aft-Bot FPC Stiffener','',(
    #708));
#708 = PRODUCT_CONTEXT('',#2,'mechanical');
#709 = PRODUCT_DEFINITION_CONTEXT('part definition',#2,'design');
#710 = SHAPE_REPRESENTATION('',(#11),#711);
#711 = ( GEOMETRIC_REPRESENTATION_CONTEXT(3) 
GLOBAL_UNCERTAINTY_ASSIGNED_CONTEXT((#715)) GLOBAL_UNIT_ASSIGNED_CONTEXT
((#712,#713,#714)) REPRESENTATION_CONTEXT('Context #1',
  '3D Context with UNIT and UNCERTAINTY') );
#712 = ( LENGTH_UNIT() NAMED_UNIT(*) SI_UNIT(.MILLI.,.METRE.) );
#713 = ( NAMED_UNIT(*) PLANE_ANGLE_UNIT() SI_UNIT($,.RADIAN.) );
#714 = ( NAMED_UNIT(*) SI_UNIT($,.STERADIAN.) SOLID_ANGLE_UNIT() );
#715 = UNCERTAINTY_MEASURE_WITH_UNIT(LENGTH_MEASURE(1.E-07),#712,
  'distance_accuracy_value','confusion accuracy');
#716 = CONTEXT_DEPENDENT_SHAPE_REPRESENTATION(#717,#719);
#717 = ( REPRESENTATION_RELATIONSHIP('','',#710,#10) 
REPRESENTATION_RELATIONSHIP_WITH_TRANSFORMATION(#718) 
SHAPE_REPRESENTATION_RELATIONSHIP() );
#718 = ITEM_DEFINED_TRANSFORMATION('','',#11,#31);
#719 = PRODUCT_DEFINITION_SHAPE('Placement','Placement of an item',#720
  );
#720 = NEXT_ASSEMBLY_USAGE_OCCURRENCE('5','=>[0:1:1:6]','',#5,#705,$);
#721 = PRODUCT_RELATED_PRODUCT_CATEGORY('part',$,(#707));
#722 = MECHANICAL_DESIGN_GEOMETRIC_PRESENTATION_REPRESENTATION('',(#723,
    #733,#741,#748,#755,#762,#769,#776,#783,#790,#797,#804,#811,#818,
    #825,#832,#839),#673);
#723 = STYLED_ITEM('color',(#724),#87);
#724 = PRESENTATION_STYLE_ASSIGNMENT((#725,#731));
#725 = SURFACE_STYLE_USAGE(.BOTH.,#726);
#726 = SURFACE_SIDE_STYLE('',(#727));
#727 = SURFACE_STYLE_FILL_AREA(#728);
#728 = FILL_AREA_STYLE('',(#729));
#729 = FILL_AREA_STYLE_COLOUR('',#730);
#730 = COLOUR_RGB('',0.,0.377508427907,0.578582128266);
#731 = CURVE_STYLE('',#732,POSITIVE_LENGTH_MEASURE(0.1),#730);
#732 = DRAUGHTING_PRE_DEFINED_CURVE_FONT('continuous');
#733 = OVER_RIDING_STYLED_ITEM('overriding color',(#734),#89,#723);
#734 = PRESENTATION_STYLE_ASSIGNMENT((#735));
#735 = SURFACE_STYLE_USAGE(.BOTH.,#736);
#736 = SURFACE_SIDE_STYLE('',(#737));
#737 = SURFACE_STYLE_FILL_AREA(#738);
#738 = FILL_AREA_STYLE('',(#739));
#739 = FILL_AREA_STYLE_COLOUR('',#740);
#740 = COLOUR_RGB('',0.937179583391,0.9357410338,0.649182888601);
#741 = OVER_RIDING_STYLED_ITEM('overriding color',(#742),#131,#723);
#742 = PRESENTATION_STYLE_ASSIGNMENT((#743));
#743 = SURFACE_STYLE_USAGE(.BOTH.,#744);
#744 = SURFACE_SIDE_STYLE('',(#745));
#745 = SURFACE_STYLE_FILL_AREA(#746);
#746 = FILL_AREA_STYLE('',(#747));
#747 = FILL_AREA_STYLE_COLOUR('',#740);
#748 = OVER_RIDING_STYLED_ITEM('overriding color',(#749),#162,#723);
#749 = PRESENTATION_STYLE_ASSIGNMENT((#750));
#750 = SURFACE_STYLE_USAGE(.BOTH.,#751);
#751 = SURFACE_SIDE_STYLE('',(#752));
#752 = SURFACE_STYLE_FILL_AREA(#753);
#753 = FILL_AREA_STYLE('',(#754));
#754 = FILL_AREA_STYLE_COLOUR('',#740);
#755 = OVER_RIDING_STYLED_ITEM('overriding color',(#756),#195,#723);
#756 = PRESENTATION_STYLE_ASSIGNMENT((#757));
#757 = SURFACE_STYLE_USAGE(.BOTH.,#758);
#758 = SURFACE_SIDE_STYLE('',(#759));
#759 = SURFACE_STYLE_FILL_AREA(#760);
#760 = FILL_AREA_STYLE('',(#761));
#761 = FILL_AREA_STYLE_COLOUR('',#740);
#762 = OVER_RIDING_STYLED_ITEM('overriding color',(#763),#226,#723);
#763 = PRESENTATION_STYLE_ASSIGNMENT((#764));
#764 = SURFACE_STYLE_USAGE(.BOTH.,#765);
#765 = SURFACE_SIDE_STYLE('',(#766));
#766 = SURFACE_STYLE_FILL_AREA(#767);
#767 = FILL_AREA_STYLE('',(#768));
#768 = FILL_AREA_STYLE_COLOUR('',#740);
#769 = OVER_RIDING_STYLED_ITEM('overriding color',(#770),#259,#723);
#770 = PRESENTATION_STYLE_ASSIGNMENT((#771));
#771 = SURFACE_STYLE_USAGE(.BOTH.,#772);
#772 = SURFACE_SIDE_STYLE('',(#773));
#773 = SURFACE_STYLE_FILL_AREA(#774);
#774 = FILL_AREA_STYLE('',(#775));
#775 = FILL_AREA_STYLE_COLOUR('',#740);
#776 = OVER_RIDING_STYLED_ITEM('overriding color',(#777),#290,#723);
#777 = PRESENTATION_STYLE_ASSIGNMENT((#778));
#778 = SURFACE_STYLE_USAGE(.BOTH.,#779);
#779 = SURFACE_SIDE_STYLE('',(#780));
#780 = SURFACE_STYLE_FILL_AREA(#781);
#781 = FILL_AREA_STYLE('',(#782));
#782 = FILL_AREA_STYLE_COLOUR('',#740);
#783 = OVER_RIDING_STYLED_ITEM('overriding color',(#784),#323,#723);
#784 = PRESENTATION_STYLE_ASSIGNMENT((#785));
#785 = SURFACE_STYLE_USAGE(.BOTH.,#786);
#786 = SURFACE_SIDE_STYLE('',(#787));
#787 = SURFACE_STYLE_FILL_AREA(#788);
#788 = FILL_AREA_STYLE('',(#789));
#789 = FILL_AREA_STYLE_COLOUR('',#740);
#790 = OVER_RIDING_STYLED_ITEM('overriding color',(#791),#345,#723);
#791 = PRESENTATION_STYLE_ASSIGNMENT((#792));
#792 = SURFACE_STYLE_USAGE(.BOTH.,#793);
#793 = SURFACE_SIDE_STYLE('',(#794));
#794 = SURFACE_STYLE_FILL_AREA(#795);
#795 = FILL_AREA_STYLE('',(#796));
#796 = FILL_AREA_STYLE_COLOUR('',#740);
#797 = OVER_RIDING_STYLED_ITEM('overriding color',(#798),#387,#723);
#798 = PRESENTATION_STYLE_ASSIGNMENT((#799));
#799 = SURFACE_STYLE_USAGE(.BOTH.,#800);
#800 = SURFACE_SIDE_STYLE('',(#801));
#801 = SURFACE_STYLE_FILL_AREA(#802);
#802 = FILL_AREA_STYLE('',(#803));
#803 = FILL_AREA_STYLE_COLOUR('',#740);
#804 = OVER_RIDING_STYLED_ITEM('overriding color',(#805),#411,#723);
#805 = PRESENTATION_STYLE_ASSIGNMENT((#806));
#806 = SURFACE_STYLE_USAGE(.BOTH.,#807);
#807 = SURFACE_SIDE_STYLE('',(#808));
#808 = SURFACE_STYLE_FILL_AREA(#809);
#809 = FILL_AREA_STYLE('',(#810));
#810 = FILL_AREA_STYLE_COLOUR('',#740);
#811 = OVER_RIDING_STYLED_ITEM('overriding color',(#812),#453,#723);
#812 = PRESENTATION_STYLE_ASSIGNMENT((#813));
#813 = SURFACE_STYLE_USAGE(.BOTH.,#814);
#814 = SURFACE_SIDE_STYLE('',(#815));
#815 = SURFACE_STYLE_FILL_AREA(#816);
#816 = FILL_AREA_STYLE('',(#817));
#817 = FILL_AREA_STYLE_COLOUR('',#740);
#818 = OVER_RIDING_STYLED_ITEM('overriding color',(#819),#477,#723);
#819 = PRESENTATION_STYLE_ASSIGNMENT((#820));
#820 = SURFACE_STYLE_USAGE(.BOTH.,#821);
#821 = SURFACE_SIDE_STYLE('',(#822));
#822 = SURFACE_STYLE_FILL_AREA(#823);
#823 = FILL_AREA_STYLE('',(#824));
#824 = FILL_AREA_STYLE_COLOUR('',#740);
#825 = OVER_RIDING_STYLED_ITEM('overriding color',(#826),#519,#723);
#826 = PRESENTATION_STYLE_ASSIGNMENT((#827));
#827 = SURFACE_STYLE_USAGE(.BOTH.,#828);
#828 = SURFACE_SIDE_STYLE('',(#829));
#829 = SURFACE_STYLE_FILL_AREA(#830);
#830 = FILL_AREA_STYLE('',(#831));
#831 = FILL_AREA_STYLE_COLOUR('',#740);
#832 = OVER_RIDING_STYLED_ITEM('overriding color',(#833),#543,#723);
#833 = PRESENTATION_STYLE_ASSIGNMENT((#834));
#834 = SURFACE_STYLE_USAGE(.BOTH.,#835);
#835 = SURFACE_SIDE_STYLE('',(#836));
#836 = SURFACE_STYLE_FILL_AREA(#837);
#837 = FILL_AREA_STYLE('',(#838));
#838 = FILL_AREA_STYLE_COLOUR('',#740);
#839 = OVER_RIDING_STYLED_ITEM('overriding color',(#840),#585,#723);
#840 = PRESENTATION_STYLE_ASSIGNMENT((#841));
#841 = SURFACE_STYLE_USAGE(.BOTH.,#842);
#842 = SURFACE_SIDE_STYLE('',(#843));
#843 = SURFACE_STYLE_FILL_AREA(#844);
#844 = FILL_AREA_STYLE('',(#845));
#845 = FILL_AREA_STYLE_COLOUR('',#740);
ENDSEC;
END-ISO-10303-21;
